<?xml version="1.0" encoding="UTF-8"?>
<svg version="1.1" xmlns="http://www.w3.org/2000/svg" width="572" height="142">
<path d="M0 0 C134.97 0 269.94 0 409 0 C409 11.88 409 23.76 409 36 C274.03 36 139.06 36 0 36 C0 24.12 0 12.24 0 0 Z " fill="#2C4A64" transform="translate(158,80)"/>
<path d="M0 0 C7.59084611 0.10974717 14.24559254 2.16372836 20.5625 6.375 C19.5725 6.705 18.5825 7.035 17.5625 7.375 C17.87960938 8.65246094 18.19671875 9.92992187 18.5234375 11.24609375 C19.64935689 16.31273099 19.99478159 21.26220776 20.1875 26.4375 C20.22617188 27.30310547 20.26484375 28.16871094 20.3046875 29.06054688 C20.39770481 31.16506359 20.48112669 33.2700009 20.5625 35.375 C35.24588504 33.30594386 35.24588504 33.30594386 47.3125 25.4375 C49.15868513 22.39129453 48.81612063 19.86228371 48.5625 16.375 C48.0675 14.89 48.0675 14.89 47.5625 13.375 C40.1375 12.385 40.1375 12.385 32.5625 11.375 C34.5625 6.375 34.5625 6.375 37.5625 4.375 C42.44082728 3.3244239 46.70721835 3.30920647 51.5625 4.375 C53.28215546 4.41375037 55.00260963 4.42265054 56.72265625 4.41015625 C57.62765869 4.40508057 58.53266113 4.40000488 59.46508789 4.39477539 C60.15723389 4.38824951 60.84937988 4.38172363 61.5625 4.375 C62.05345124 49.65581065 62.05345124 49.65581065 56.5625 70.375 C57.41714844 70.43558594 58.27179688 70.49617188 59.15234375 70.55859375 C60.25707031 70.64238281 61.36179687 70.72617188 62.5 70.8125 C64.15322266 70.93431641 64.15322266 70.93431641 65.83984375 71.05859375 C68.5625 71.375 68.5625 71.375 69.5625 72.375 C69.70365161 75.04558851 69.60497107 77.69932238 69.5625 80.375 C73.8525 80.375 78.1425 80.375 82.5625 80.375 C80.5625 86.375 80.5625 86.375 78.875 89.875 C76.77881465 95.4648276 78.28766606 98.89938913 80.625 104.125 C80.98722656 104.88296875 81.34945312 105.6409375 81.72265625 106.421875 C82.5625 108.375 82.5625 108.375 82.5625 110.375 C78.91668313 110.40387512 75.27089537 110.42175585 71.625 110.4375 C70.06362305 110.45006836 70.06362305 110.45006836 68.47070312 110.46289062 C66.98666992 110.46772461 66.98666992 110.46772461 65.47265625 110.47265625 C64.09799194 110.48051147 64.09799194 110.48051147 62.69555664 110.48852539 C60.5625 110.375 60.5625 110.375 59.5625 109.375 C59.5625 106.735 59.5625 104.095 59.5625 101.375 C53.9525 101.375 48.3425 101.375 42.5625 101.375 C41.9025 103.355 41.2425 105.335 40.5625 107.375 C39.54443359 109.27441406 39.54443359 109.27441406 38.4609375 110.890625 C37.85536011 111.80038086 37.85536011 111.80038086 37.23754883 112.72851562 C36.80853271 113.35435547 36.3795166 113.98019531 35.9375 114.625 C35.49237061 115.28177734 35.04724121 115.93855469 34.58862305 116.61523438 C19.22586735 139.04293564 19.22586735 139.04293564 10.5625 142.375 C-3.13028092 139.26823458 -13.95488703 122.23685754 -21.4375 111.375 C-20.56609375 111.42140625 -19.6946875 111.4678125 -18.796875 111.515625 C-3.73158352 111.97214898 8.07807461 107.28589142 19.25 97.125 C22.69329204 93.99929315 26.15128678 92.7680147 30.5625 91.375 C25.14842733 91.88623596 21.50293022 93.83970681 16.9375 96.5625 C15.52063523 97.3808207 14.10265528 98.19721342 12.68359375 99.01171875 C11.98733887 99.41310059 11.29108398 99.81448242 10.57373047 100.22802734 C-3.22570121 108.09762312 -3.22570121 108.09762312 -10.4375 108.375 C-11.42169922 108.43107422 -11.42169922 108.43107422 -12.42578125 108.48828125 C-16.81592458 108.64536736 -20.48955795 108.34897103 -24.4375 106.375 C-25.0975 104.725 -25.7575 103.075 -26.4375 101.375 C-31.7175 101.375 -36.9975 101.375 -42.4375 101.375 C-42.4375 104.345 -42.4375 107.315 -42.4375 110.375 C-49.6975 110.375 -56.9575 110.375 -64.4375 110.375 C-63.65701678 106.4725839 -63.01996782 104.26605498 -61.3125 100.875 C-60.12722025 98.24921604 -59.4375 96.71008224 -59.4375 93.8125 C-60.65030789 90.85628076 -62.06513234 88.04545187 -63.59765625 85.2421875 C-64.4375 83.375 -64.4375 83.375 -64.4375 80.375 C-60.8075 80.375 -57.1775 80.375 -53.4375 80.375 C-53.458125 79.075625 -53.47875 77.77625 -53.5 76.4375 C-53.52149454 75.08334367 -53.50898199 73.72743917 -53.4375 72.375 C-52.4375 71.375 -52.4375 71.375 -49.49609375 71.27734375 C-48.30113281 71.28894531 -47.10617188 71.30054687 -45.875 71.3125 C-44.67746094 71.32152344 -43.47992188 71.33054687 -42.24609375 71.33984375 C-40.85583984 71.35724609 -40.85583984 71.35724609 -39.4375 71.375 C-39.64246094 70.51777344 -39.84742187 69.66054687 -40.05859375 68.77734375 C-40.32800781 67.63394531 -40.59742187 66.49054688 -40.875 65.3125 C-41.14183594 64.18714844 -41.40867187 63.06179687 -41.68359375 61.90234375 C-43.01581772 55.6691922 -43.59771767 49.57456256 -43.71875 43.2109375 C-43.73715942 42.45583893 -43.75556885 41.70074036 -43.77453613 40.92276001 C-43.85249579 37.72240023 -43.92089594 34.52185583 -43.98974609 31.32128906 C-44.04168983 28.97190728 -44.09882932 26.6226908 -44.15625 24.2734375 C-44.16982544 23.55562103 -44.18340088 22.83780457 -44.1973877 22.09823608 C-44.26940199 19.17866391 -44.42544369 16.43332293 -45.01757812 13.56884766 C-45.4375 11.375 -45.4375 11.375 -44.4375 8.375 C-44.82682856 6.23244207 -44.82682856 6.23244207 -45.4375 4.375 C-41.54191912 4.25856696 -37.64678742 4.18767091 -33.75 4.125 C-32.09581055 4.07472656 -32.09581055 4.07472656 -30.40820312 4.0234375 C-22.24273487 3.92476115 -22.24273487 3.92476115 -18.16796875 6.203125 C-16.4375 8.375 -16.4375 8.375 -16.4375 11.375 C-17.26894531 11.50777344 -18.10039063 11.64054688 -18.95703125 11.77734375 C-20.04371094 11.95394531 -21.13039062 12.13054688 -22.25 12.3125 C-23.32894531 12.48652344 -24.40789063 12.66054687 -25.51953125 12.83984375 C-28.48683356 13.31371921 -28.48683356 13.31371921 -31.4375 14.375 C-31.89513495 20.09543683 -31.15403644 22.97383843 -27.4375 27.375 C-22.55597384 31.25194379 -18.03423013 32.46303656 -12.0625 33.625 C-11.23105469 33.79773437 -10.39960937 33.97046875 -9.54296875 34.1484375 C-7.5102018 34.56900997 -5.47414899 34.97364779 -3.4375 35.375 C-3.3240625 34.12847656 -3.210625 32.88195313 -3.09375 31.59765625 C-2.6839989 28.32036881 -2.19052739 26.32095782 0.0625 23.8125 C2.7248202 20.45766876 3.39250816 17.70979196 3.5625 13.375 C3.0675 12.385 3.0675 12.385 2.5625 11.375 C-0.0775 11.375 -2.7175 11.375 -5.4375 11.375 C-7.28401134 8.25901212 -7.81829379 5.99254103 -7.4375 2.375 C-4.83150012 -0.23099988 -3.6321257 0.0472318 0 0 Z " fill="#2A4A67" transform="translate(64.4375,-0.37499999999999994)"/>
<path d="M0 0 C2.015625 1.515625 2.015625 1.515625 4 4 C4.12958424 6.76839049 4.0727725 9.03973571 3.75 11.75 C3.68425781 12.44738281 3.61851563 13.14476562 3.55078125 13.86328125 C3.38640673 15.57747263 3.19577346 17.28911023 3 19 C4.65 19 6.3 19 8 19 C11.25643639 25.16396888 13.72401366 31.41416719 16 38 C18.84555192 31.7337314 21.48568591 25.40615131 24 19 C26.31 19 28.62 19 31 19 C29.515 19.495 29.515 19.495 28 20 C28.495 27.425 28.495 27.425 29 35 C31.97 27.08 34.94 19.16 38 11 C40.64 11 43.28 11 46 11 C46.33 10.34 46.66 9.68 47 9 C46.57483041 17.95788336 45.25824035 26.32210784 43 35 C43.85464844 35.06058594 44.70929688 35.12117188 45.58984375 35.18359375 C46.69457031 35.26738281 47.79929687 35.35117188 48.9375 35.4375 C50.03964844 35.51871094 51.14179688 35.59992188 52.27734375 35.68359375 C55 36 55 36 56 37 C56.14115161 39.67058851 56.04247107 42.32432238 56 45 C60.29 45 64.58 45 69 45 C67 51 67 51 65.3125 54.5 C63.21631465 60.0898276 64.72516606 63.52438913 67.0625 68.75 C67.60583984 69.88695313 67.60583984 69.88695313 68.16015625 71.046875 C69 73 69 73 69 75 C65.35418313 75.02887512 61.70839537 75.04675585 58.0625 75.0625 C57.02158203 75.07087891 55.98066406 75.07925781 54.90820312 75.08789062 C53.91884766 75.09111328 52.92949219 75.09433594 51.91015625 75.09765625 C50.53549194 75.10551147 50.53549194 75.10551147 49.13305664 75.11352539 C47 75 47 75 46 74 C46 71.36 46 68.72 46 66 C40.39 66 34.78 66 29 66 C28.34 67.98 27.68 69.96 27 72 C25.98193359 73.89941406 25.98193359 73.89941406 24.8984375 75.515625 C24.29286011 76.42538086 24.29286011 76.42538086 23.67504883 77.35351562 C23.24603271 77.97935547 22.8170166 78.60519531 22.375 79.25 C21.92987061 79.90677734 21.48474121 80.56355469 21.02612305 81.24023438 C5.66336735 103.66793564 5.66336735 103.66793564 -3 107 C-16.69278092 103.89323458 -27.51738703 86.86185754 -35 76 C-34.12859375 76.04640625 -33.2571875 76.0928125 -32.359375 76.140625 C-17.29408352 76.59714898 -5.48442539 71.91089142 5.6875 61.75 C9.13079204 58.62429315 12.58878678 57.3930147 17 56 C11.58597432 56.51123153 7.94037339 58.46463416 3.375 61.1875 C1.96075095 62.00453814 0.54537451 62.81962778 -0.87109375 63.6328125 C-1.56702637 64.0340332 -2.26295898 64.43525391 -2.97998047 64.84863281 C-5.85218067 66.48572444 -8.75159414 68.04179535 -11.6875 69.5625 C-13.05455078 70.27599609 -13.05455078 70.27599609 -14.44921875 71.00390625 C-17.18365873 72.07171972 -19.09749512 72.07720233 -22 72 C-23.00395221 68.2093684 -24.00249094 64.41733176 -25 60.625 C-25.42925781 59.00464844 -25.42925781 59.00464844 -25.8671875 57.3515625 C-26.13789062 56.3203125 -26.40859375 55.2890625 -26.6875 54.2265625 C-26.93886719 53.27346191 -27.19023438 52.32036133 -27.44921875 51.33837891 C-28 49 -28 49 -28 47 C-30.97 47 -33.94 47 -37 47 C-37 46.34 -37 45.68 -37 45 C-36.01 45 -35.02 45 -34 45 C-34 37.08 -34 29.16 -34 21 C-35.98 21 -37.96 21 -40 21 C-40.66 22.32 -41.32 23.64 -42 25 C-42 23.02 -42 21.04 -42 19 C-35.73 19 -29.46 19 -23 19 C-23 19.66 -23 20.32 -23 21 C-22.34 21 -21.68 21 -21 21 C-20.01 26.61 -19.02 32.22 -18 38 C-17.34 38 -16.68 38 -16 38 C-15.67 39.98 -15.34 41.96 -15 44 C-12.36 44.33 -9.72 44.66 -7 45 C-6.25256793 41.43314781 -6.25256793 41.43314781 -7 38 C-9.20991416 35.90942365 -9.20991416 35.90942365 -11.9375 34 C-16.85244946 30.39570373 -16.85244946 30.39570373 -18.375 26.3125 C-17.91954954 22.28935431 -17.01046751 20.68501156 -14 18 C-12.68 18 -11.36 18 -10 18 C-10 13.38 -10 8.76 -10 4 C-6 2 -6 2 -3.875 2.3125 C-2 3 -2 3 0 4 C0 2.68 0 1.36 0 0 Z " fill="#196496" transform="translate(78,35)"/>
<path d="M0 0 C7.59084611 0.10974717 14.24559254 2.16372836 20.5625 6.375 C19.5725 6.705 18.5825 7.035 17.5625 7.375 C17.87960938 8.65246094 18.19671875 9.92992187 18.5234375 11.24609375 C19.64935689 16.31273099 19.99478159 21.26220776 20.1875 26.4375 C20.22617188 27.30310547 20.26484375 28.16871094 20.3046875 29.06054688 C20.39770481 31.16506359 20.48112669 33.2700009 20.5625 35.375 C35.24588504 33.30594386 35.24588504 33.30594386 47.3125 25.4375 C49.15868513 22.39129453 48.81612063 19.86228371 48.5625 16.375 C48.0675 14.89 48.0675 14.89 47.5625 13.375 C40.1375 12.385 40.1375 12.385 32.5625 11.375 C34.5625 6.375 34.5625 6.375 37.5625 4.375 C42.44082728 3.3244239 46.70721835 3.30920647 51.5625 4.375 C53.28215546 4.41375037 55.00260963 4.42265054 56.72265625 4.41015625 C57.62765869 4.40508057 58.53266113 4.40000488 59.46508789 4.39477539 C60.15723389 4.38824951 60.84937988 4.38172363 61.5625 4.375 C61.6121911 9.23134901 61.64835664 14.08754776 61.67236328 18.9440918 C61.68237851 20.59385763 61.6959946 22.24360591 61.71337891 23.89331055 C61.73782542 26.27397005 61.74902803 28.65439347 61.7578125 31.03515625 C61.76813507 31.76460953 61.77845764 32.49406281 61.78909302 33.24562073 C61.79011619 37.98819411 61.05668829 41.86916922 59.5625 46.375 C56.9225 46.375 54.2825 46.375 51.5625 46.375 C51.41554687 46.89964844 51.26859375 47.42429688 51.1171875 47.96484375 C48.6285261 56.56073743 45.58095906 64.95457375 42.5625 73.375 C42.2325 73.375 41.9025 73.375 41.5625 73.375 C41.5625 67.435 41.5625 61.495 41.5625 55.375 C40.2425 55.045 38.9225 54.715 37.5625 54.375 C37.39234375 54.98085938 37.2221875 55.58671875 37.046875 56.2109375 C35.24683058 62.43449532 33.06631567 68.40142961 30.5625 74.375 C27.94554627 73.06652314 27.93372428 72.10283402 27.01171875 69.375 C26.72490234 68.570625 26.43808594 67.76625 26.14257812 66.9375 C25.54878286 65.23277488 24.96538349 63.5243921 24.39257812 61.8125 C23.57279316 59.54400414 22.79021537 57.45222733 21.5625 55.375 C18.96752347 54.16183524 18.96752347 54.16183524 16.5625 54.375 C16.58570312 53.32699219 16.60890625 52.27898438 16.6328125 51.19921875 C16.65157303 49.82031963 16.66977293 48.4414128 16.6875 47.0625 C16.70425781 46.37220703 16.72101563 45.68191406 16.73828125 44.97070312 C16.77467794 41.20364604 16.70628864 39.59068296 14.5625 36.375 C14.2325 37.365 13.9025 38.355 13.5625 39.375 C12.20125 39.0965625 12.20125 39.0965625 10.8125 38.8125 C7.4116925 38.15076292 7.4116925 38.15076292 3.5625 39.375 C3.5625 43.995 3.5625 48.615 3.5625 53.375 C1.9125 54.035 0.2625 54.695 -1.4375 55.375 C-3.46962227 58.42318341 -3.95814909 59.82522543 -3.3984375 63.41796875 C-1.99762781 66.27083726 0.1298355 67.53018597 2.6875 69.375 C7.44849349 72.83754072 7.44849349 72.83754072 8 75.4375 C7.6875 77.375 7.6875 77.375 6.5625 80.375 C1.10795455 80.73863636 1.10795455 80.73863636 -1.3125 79.125 C-2.4375 77.375 -2.4375 77.375 -2.4375 73.375 C-3.0975 73.375 -3.7575 73.375 -4.4375 73.375 C-4.7675 74.695 -5.0975 76.015 -5.4375 77.375 C-5.99162246 73.16189799 -6.5428375 68.94842797 -7.09155273 64.73461914 C-7.27796072 63.30613349 -7.46511393 61.87774486 -7.65307617 60.44946289 C-8.75072202 52.10442741 -9.76941676 43.76786544 -10.4375 35.375 C-8.1275 35.375 -5.8175 35.375 -3.4375 35.375 C-3.375625 34.199375 -3.31375 33.02375 -3.25 31.8125 C-2.75133412 27.58500415 -1.18005239 25.37825966 1.4140625 22.109375 C3.25049565 19.33598616 3.43467041 16.6346546 3.5625 13.375 C3.2325 12.715 2.9025 12.055 2.5625 11.375 C-0.0775 11.375 -2.7175 11.375 -5.4375 11.375 C-7.28401134 8.25901212 -7.81829379 5.99254103 -7.4375 2.375 C-4.83150012 -0.23099988 -3.6321257 0.0472318 0 0 Z " fill="#2A4B68" transform="translate(64.4375,-0.37499999999999994)"/>
<path d="M0 0 C1.76150391 0.02126953 1.76150391 0.02126953 3.55859375 0.04296875 C5.32396484 0.05263672 5.32396484 0.05263672 7.125 0.0625 C9.99609375 0.23046875 9.99609375 0.23046875 10.99609375 1.23046875 C11.13724536 3.90105726 11.03856482 6.55479113 10.99609375 9.23046875 C15.28609375 9.23046875 19.57609375 9.23046875 23.99609375 9.23046875 C21.99609375 15.23046875 21.99609375 15.23046875 20.30859375 18.73046875 C18.2124084 24.32029635 19.72125981 27.75485788 22.05859375 32.98046875 C22.42082031 33.7384375 22.78304687 34.49640625 23.15625 35.27734375 C23.99609375 37.23046875 23.99609375 37.23046875 23.99609375 39.23046875 C20.35027688 39.25934387 16.70448912 39.2772246 13.05859375 39.29296875 C12.01767578 39.30134766 10.97675781 39.30972656 9.90429688 39.31835938 C8.91494141 39.32158203 7.92558594 39.32480469 6.90625 39.328125 C5.53158569 39.33598022 5.53158569 39.33598022 4.12915039 39.34399414 C1.99609375 39.23046875 1.99609375 39.23046875 0.99609375 38.23046875 C0.99609375 35.59046875 0.99609375 32.95046875 0.99609375 30.23046875 C-4.61390625 30.23046875 -10.22390625 30.23046875 -16.00390625 30.23046875 C-16.66390625 32.21046875 -17.32390625 34.19046875 -18.00390625 36.23046875 C-19.02197266 38.12988281 -19.02197266 38.12988281 -20.10546875 39.74609375 C-20.50918701 40.35259766 -20.91290527 40.95910156 -21.32885742 41.58398438 C-21.75787354 42.20982422 -22.18688965 42.83566406 -22.62890625 43.48046875 C-23.07403564 44.13724609 -23.51916504 44.79402344 -23.9777832 45.47070312 C-39.3405389 67.89840439 -39.3405389 67.89840439 -48.00390625 71.23046875 C-61.69668717 68.12370333 -72.52129328 51.09232629 -80.00390625 40.23046875 C-79.1325 40.276875 -78.26109375 40.32328125 -77.36328125 40.37109375 C-62.29798977 40.82761773 -50.48833164 36.14136017 -39.31640625 25.98046875 C-33.38011852 20.7318361 -27.35564498 19.78645549 -19.5703125 19.9921875 C-16.49726169 20.27750881 -13.83505684 21.00618741 -11.00390625 22.23046875 C-8.96860804 16.38439943 -7.24563438 10.52351227 -5.75 4.515625 C-4.59755899 0.98589729 -3.71789459 0.28524809 0 0 Z " fill="#E89834" transform="translate(123.00390625,70.76953125)"/>
<path d="M0 0 C0.99 0 1.98 0 3 0 C3.45850342 1.12905762 3.91700684 2.25811523 4.3894043 3.42138672 C6.10934411 7.65366118 7.83455586 11.88377043 9.5612793 16.11328125 C10.30455689 17.93594679 11.04644833 19.7591783 11.78686523 21.58300781 C16.77152813 37.68022417 16.77152813 37.68022417 26.1394043 50.24169922 C26.75340088 50.49193848 27.36739746 50.74217773 28 51 C28 51.33 28 51.66 28 52 C21.4 52 14.8 52 8 52 C9.32 51.01 10.64 50.02 12 49 C11.38170447 43.92997663 10.13290367 40.97677524 8 36 C2.06 36 -3.88 36 -10 36 C-12.91110211 42.30648239 -12.91110211 42.30648239 -14 49 C-12.35 49.66 -10.7 50.32 -9 51 C-9 51.33 -9 51.66 -9 52 C-35.53405387 54.53727621 -35.53405387 54.53727621 -42.56542969 50.54248047 C-46.37826187 46.97953199 -48.757833 42.75243773 -50.97753906 38.07373047 C-52.6441835 34.69348265 -54.61375848 31.92446319 -57 29 C-59.07993846 28.27777027 -59.07993846 28.27777027 -61 28 C-60.89040282 31.29237055 -60.75971069 34.58356887 -60.625 37.875 C-60.5940625 38.81214844 -60.563125 39.74929687 -60.53125 40.71484375 C-60.49257813 41.61074219 -60.45390625 42.50664063 -60.4140625 43.4296875 C-60.3826416 44.25710449 -60.3512207 45.08452148 -60.31884766 45.93701172 C-60.17400863 48.21986085 -60.17400863 48.21986085 -58 50 C-56.68 50.66 -55.36 51.32 -54 52 C-61.26 52 -68.52 52 -76 52 C-72 50 -72 50 -70 50 C-70 34.49 -70 18.98 -70 3 C-72.97 2.505 -72.97 2.505 -76 2 C-76 1.67 -76 1.34 -76 1 C-72.01659695 0.90026148 -68.03368892 0.82812802 -64.04931641 0.78027344 C-62.03652373 0.75053955 -60.02407866 0.69968271 -58.01171875 0.6484375 C-50.51539245 0.57309754 -45.30697792 0.79534805 -39 5 C-35.9323239 8.45113561 -35.50792541 11.60447383 -35.7265625 16.078125 C-36.16078715 19.13010399 -36.94268769 20.68552365 -39 23 C-41.58026736 24.55223185 -44.23072653 25.82256544 -47 27 C-39.73017781 40.99178112 -39.73017781 40.99178112 -27.5 49.8125 C-24.51848885 50.03611334 -23.47978323 49.63347912 -21 48 C-19.6055978 45.81235108 -19.6055978 45.81235108 -18.5546875 43.14453125 C-18.12196533 42.13962646 -17.68924316 41.13472168 -17.2434082 40.09936523 C-16.7918335 39.01469971 -16.34025879 37.93003418 -15.875 36.8125 C-15.40215576 35.70656494 -14.92931152 34.60062988 -14.44213867 33.46118164 C-13.45271011 31.14648757 -12.46834661 28.82962258 -11.48876953 26.51074219 C-9.13837058 20.96814839 -6.72176371 15.45468768 -4.3125 9.9375 C-2.87341725 6.62568592 -1.43642182 3.31296896 0 0 Z M-61 5 C-61 11.93 -61 18.86 -61 26 C-52.51749302 25.52359283 -52.51749302 25.52359283 -47 21 C-44.7996564 18.19956268 -45.00436461 16.72502946 -45.0625 13.0625 C-45.75752794 8.73069797 -47.42088083 6.62468739 -51 4 C-55.55678524 2.60506574 -56.60245919 2.8012296 -61 5 Z M-1 14 C-4.28217236 20.21407336 -6.93991112 26.27760471 -9 33 C-3.72 33 1.56 33 7 33 C4.91923185 26.54961873 2.57778144 20.26780359 0 14 C-0.33 14 -0.66 14 -1 14 Z " fill="#105888" transform="translate(540,15)"/>
<path d="M0 0 C7.59084611 0.10974717 14.24559254 2.16372836 20.5625 6.375 C19.5725 6.705 18.5825 7.035 17.5625 7.375 C17.87960938 8.65246094 18.19671875 9.92992187 18.5234375 11.24609375 C19.64935689 16.31273099 19.99478159 21.26220776 20.1875 26.4375 C20.22617188 27.30310547 20.26484375 28.16871094 20.3046875 29.06054688 C20.39770481 31.16506359 20.48112669 33.2700009 20.5625 35.375 C22.5425 35.375 24.5225 35.375 26.5625 35.375 C26.04712048 42.50893752 25.12244099 49.39312817 23.5625 56.375 C21.2525 55.715 18.9425 55.055 16.5625 54.375 C16.58570312 53.32699219 16.60890625 52.27898438 16.6328125 51.19921875 C16.65157303 49.82031963 16.66977293 48.4414128 16.6875 47.0625 C16.70425781 46.37220703 16.72101563 45.68191406 16.73828125 44.97070312 C16.77467794 41.20364604 16.70628864 39.59068296 14.5625 36.375 C14.2325 37.365 13.9025 38.355 13.5625 39.375 C12.20125 39.0965625 12.20125 39.0965625 10.8125 38.8125 C7.4116925 38.15076292 7.4116925 38.15076292 3.5625 39.375 C3.5625 43.995 3.5625 48.615 3.5625 53.375 C1.9125 54.035 0.2625 54.695 -1.4375 55.375 C-3.46962227 58.42318341 -3.95814909 59.82522543 -3.3984375 63.41796875 C-1.99762781 66.27083726 0.1298355 67.53018597 2.6875 69.375 C7.44849349 72.83754072 7.44849349 72.83754072 8 75.4375 C7.6875 77.375 7.6875 77.375 6.5625 80.375 C1.10795455 80.73863636 1.10795455 80.73863636 -1.3125 79.125 C-2.4375 77.375 -2.4375 77.375 -2.4375 73.375 C-3.0975 73.375 -3.7575 73.375 -4.4375 73.375 C-4.7675 74.695 -5.0975 76.015 -5.4375 77.375 C-5.99162246 73.16189799 -6.5428375 68.94842797 -7.09155273 64.73461914 C-7.27796072 63.30613349 -7.46511393 61.87774486 -7.65307617 60.44946289 C-8.75072202 52.10442741 -9.76941676 43.76786544 -10.4375 35.375 C-8.1275 35.375 -5.8175 35.375 -3.4375 35.375 C-3.375625 34.199375 -3.31375 33.02375 -3.25 31.8125 C-2.75133412 27.58500415 -1.18005239 25.37825966 1.4140625 22.109375 C3.25049565 19.33598616 3.43467041 16.6346546 3.5625 13.375 C3.2325 12.715 2.9025 12.055 2.5625 11.375 C-0.0775 11.375 -2.7175 11.375 -5.4375 11.375 C-7.28401134 8.25901212 -7.81829379 5.99254103 -7.4375 2.375 C-4.83150012 -0.23099988 -3.6321257 0.0472318 0 0 Z " fill="#2C4B67" transform="translate(64.4375,-0.37499999999999994)"/>
<path d="M0 0 C4.95 0 9.9 0 15 0 C19.99650107 9.74794215 24.6942807 19.58772462 29.11694336 29.61035156 C29.47925049 30.42858398 29.84155762 31.24681641 30.21484375 32.08984375 C30.53573975 32.82066162 30.85663574 33.55147949 31.18725586 34.30444336 C31.88028774 35.9909524 31.88028774 35.9909524 33 37 C33.47945068 35.95021973 33.95890137 34.90043945 34.45288086 33.81884766 C36.22856424 29.93115137 38.00471387 26.04366825 39.78100586 22.15625 C40.55033931 20.47238908 41.31954559 18.78847005 42.08862305 17.10449219 C43.19286359 14.68669665 44.29755838 12.26910912 45.40234375 9.8515625 C45.74716293 9.0963028 46.09198212 8.34104309 46.44725037 7.56289673 C48.88612829 2.22774341 48.88612829 2.22774341 50 0 C54.95 0 59.9 0 65 0 C64.01 0.66 63.02 1.32 62 2 C60.06911716 3.59215197 59.11706963 4.41700581 58.61904907 6.89709473 C58.61666229 7.60974487 58.61427551 8.32239502 58.61181641 9.05664062 C58.60235992 9.86758179 58.59290344 10.67852295 58.5831604 11.51403809 C58.59226944 12.82193298 58.59226944 12.82193298 58.6015625 14.15625 C58.59725723 15.50426697 58.59725723 15.50426697 58.59286499 16.8795166 C58.59082385 18.77922191 58.59635722 20.6789482 58.60888672 22.57861328 C58.62493979 25.4890841 58.60903987 28.39816621 58.58984375 31.30859375 C58.59182617 33.1536489 58.59566983 34.99870319 58.6015625 36.84375 C58.59548981 37.71567993 58.58941711 38.58760986 58.5831604 39.48596191 C58.59261688 40.29690308 58.60207336 41.10784424 58.61181641 41.94335938 C58.61539658 43.01233459 58.61539658 43.01233459 58.61904907 44.10290527 C59.34323497 47.70927329 62.066182 49.04412133 65 51 C57.74 51 50.48 51 43 51 C45 50 47 49 49 48 C49 36.78 49 25.56 49 14 C47.89140625 16.58714844 46.7828125 19.17429687 45.640625 21.83984375 C44.55859122 24.33678214 43.47145213 26.83143722 42.38378906 29.32592773 C41.6297158 31.06286177 40.8809852 32.80212532 40.13769531 34.54370117 C39.06926117 37.04454936 37.98198645 39.53643123 36.890625 42.02734375 C36.56128967 42.80963852 36.23195435 43.59193329 35.89263916 44.39793396 C34.92285156 46.58178711 34.92285156 46.58178711 33 50 C30.87982178 50.71363831 30.87982178 50.71363831 29 51 C26.73769878 46.07129302 24.47741306 41.14166877 22.21899414 36.21118164 C21.45034289 34.5338441 20.68114047 32.85675903 19.91137695 31.17993164 C18.80535368 28.77035548 17.70131252 26.35987981 16.59765625 23.94921875 C16.25283707 23.19912033 15.90801788 22.44902191 15.55274963 21.67619324 C14.24143161 18.80793633 12.99815881 15.99447643 12 13 C11.95063117 17.80548597 11.91429557 22.61082494 11.89013672 27.41650391 C11.88006746 29.05194672 11.86641119 30.68737149 11.84912109 32.32275391 C11.82491295 34.6709437 11.81352643 37.01889588 11.8046875 39.3671875 C11.79436493 40.10057343 11.78404236 40.83395935 11.77340698 41.58956909 C11.77300632 43.39462697 11.87787245 45.1990783 12 47 C14.10540926 49.31622777 14.10540926 49.31622777 18 51 C12.06 51 6.12 51 0 51 C1.32 50.34 2.64 49.68 4 49 C6.36458058 46.63541942 6.25448521 46.17285793 6.2746582 42.96508789 C6.28419022 42.13405045 6.29372223 41.303013 6.30354309 40.4467926 C6.30263168 39.54782761 6.30172028 38.64886261 6.30078125 37.72265625 C6.30506638 36.80036728 6.3093515 35.87807831 6.31376648 34.92784119 C6.31951559 32.97509584 6.32000578 31.02232908 6.31567383 29.06958008 C6.31251627 26.07791665 6.3359573 23.08724401 6.36132812 20.09570312 C6.36360126 18.20052208 6.36430455 16.30533838 6.36328125 14.41015625 C6.372491 13.51321548 6.38170074 12.61627472 6.39118958 11.69215393 C6.38496078 10.85796432 6.37873199 10.02377472 6.37231445 9.16430664 C6.37294388 8.4308754 6.3735733 7.69744415 6.3742218 6.94178772 C5.8888048 4.42302274 4.96188465 3.60881844 3 2 C2.01 1.34 1.02 0.68 0 0 Z " fill="#105889" transform="translate(273,16)"/>
<path d="M0 0 C0.33 0 0.66 0 1 0 C0.57302562 12.65979029 -2.24057184 24.27449972 -7 36 C-7.89831733 38.33237814 -8.79397176 40.66578298 -9.6875 43 C-10.4580035 45.00012709 -11.22872431 47.00017055 -12 49 C-13.258125 48.67 -14.51625 48.34 -15.8125 48 C-24.87931346 46.02152736 -32.3910927 46.61288893 -41 50 C-40.34 45.71 -39.68 41.42 -39 37 C-40.65 37 -42.3 37 -44 37 C-43.34 36.34 -42.68 35.68 -42 35 C-41.68918663 32.60823522 -41.68918663 32.60823522 -41.734375 29.84375 C-41.73179688 28.82152344 -41.72921875 27.79929687 -41.7265625 26.74609375 C-41.73429687 25.67488281 -41.74203125 24.60367188 -41.75 23.5 C-41.73839844 21.89318359 -41.73839844 21.89318359 -41.7265625 20.25390625 C-41.73042969 18.72056641 -41.73042969 18.72056641 -41.734375 17.15625 C-41.73663086 16.21587891 -41.73888672 15.27550781 -41.74121094 14.30664062 C-41.77901284 11.80508033 -41.77901284 11.80508033 -44 10 C-42.02 10 -40.04 10 -38 10 C-34.74356361 16.16396888 -32.27598634 22.41416719 -30 29 C-27.15444808 22.7337314 -24.51431409 16.40615131 -22 10 C-19.69 10 -17.38 10 -15 10 C-15.99 10.33 -16.98 10.66 -18 11 C-17.67 15.95 -17.34 20.9 -17 26 C-14.03 18.08 -11.06 10.16 -8 2 C-5.36 2 -2.72 2 0 2 C0 1.34 0 0.68 0 0 Z " fill="#195E8F" transform="translate(124,44)"/>
<path d="M0 0 C7.26 0 14.52 0 22 0 C20 1.33333333 18 2.66666667 16 4 C15.49297483 6.12106795 15.49297483 6.12106795 15.48828125 8.5703125 C15.45516846 9.37742676 15.42205566 10.18454102 15.38793945 11.01611328 C15.35059692 12.55501221 15.35059692 12.55501221 15.3125 14.125 C15.209375 17.38375 15.10625 20.6425 15 24 C22.59 24 30.18 24 38 24 C37.855625 21.2775 37.71125 18.555 37.5625 15.75 C37.51939697 14.89889648 37.47629395 14.04779297 37.43188477 13.17089844 C37.3747229 12.15044434 37.3747229 12.15044434 37.31640625 11.109375 C37.26141968 10.07248535 37.26141968 10.07248535 37.20532227 9.01464844 C36.98736732 6.87604653 36.74559078 5.02184923 36 3 C33.00384054 1.6954344 33.00384054 1.6954344 30 1 C30 0.67 30 0.34 30 0 C37.59 0 45.18 0 53 0 C51 1 49 2 47 3 C47 17.85 47 32.7 47 48 C48.98 48.66 50.96 49.32 53 50 C53 50.33 53 50.66 53 51 C45.41 51 37.82 51 30 51 C32 50 34 49 36 48 C36.93116296 45.24294631 37.17171988 42.56560237 37.31640625 39.671875 C37.35451416 38.9509668 37.39262207 38.23005859 37.43188477 37.48730469 C37.47498779 36.58399414 37.51809082 35.68068359 37.5625 34.75 C37.706875 31.8625 37.85125 28.975 38 26 C30.41 26 22.82 26 15 26 C15.33 32.93 15.66 39.86 16 47 C17.98 47.99 19.96 48.98 22 50 C22 50.33 22 50.66 22 51 C14.74 51 7.48 51 0 51 C4 49 4 49 6 49 C6 33.49 6 17.98 6 2 C3.03 1.505 3.03 1.505 0 1 C0 0.67 0 0.34 0 0 Z " fill="#105888" transform="translate(409,16)"/>
<path d="M0 0 C-1.84611786 6.5141995 -4.41581983 11.83189551 -8.1875 17.4375 C-8.91888184 18.54327393 -8.91888184 18.54327393 -9.66503906 19.67138672 C-24.95062276 42.51947029 -24.95062276 42.51947029 -34 46 C-39.10947527 44.86296184 -42.36123412 42.35271208 -46.0625 38.8125 C-46.84802246 38.07809692 -46.84802246 38.07809692 -47.64941406 37.32885742 C-51.32611171 33.82331639 -54.32310009 30.30216057 -57 26 C-56.35675781 25.98582031 -55.71351562 25.97164062 -55.05078125 25.95703125 C-39.3617714 25.12893801 -27.35414328 17.72098799 -16.67578125 6.609375 C-11.56071771 1.69700629 -7.11020451 -0.7406463 0 0 Z " fill="#2D4C66" transform="translate(109,96)"/>
<path d="M0 0 C4.95 0 9.9 0 15 0 C16.94943 4.41186789 18.72464366 8.86553563 20.4375 13.375 C22.45815773 18.67157252 24.64132966 23.84586851 27 29 C21.72 29 16.44 29 11 29 C11 31.97 11 34.94 11 38 C3.74 38 -3.52 38 -11 38 C-10.21951678 34.0975839 -9.58246782 31.89105498 -7.875 28.5 C-6.68972025 25.87421604 -6 24.33508224 -6 21.4375 C-7.21280789 18.48128076 -8.62763234 15.67045187 -10.16015625 12.8671875 C-11 11 -11 11 -11 8 C-7.37 8 -3.74 8 0 8 C0 5.36 0 2.72 0 0 Z " fill="#E79935" transform="translate(11,72)"/>
<path d="M0 0 C0.928125 0.495 1.85625 0.99 2.8125 1.5 C3.1425 0.51 3.4725 -0.48 3.8125 -1.5 C4.4725 -1.5 5.1325 -1.5 5.8125 -1.5 C5.8125 4.11 5.8125 9.72 5.8125 15.5 C5.1525 15.5 4.4925 15.5 3.8125 15.5 C3.60496094 14.82453125 3.39742188 14.1490625 3.18359375 13.453125 C1.10188327 7.22880175 1.10188327 7.22880175 -3.5 2.8125 C-7.71497922 1.31225316 -9.92309855 1.18787648 -14.1875 2.5 C-16.33532671 4.05797882 -16.33532671 4.05797882 -17.1875 6.5 C-17.58183024 9.48212014 -17.58183024 9.48212014 -16.1875 12.5 C-11.2004352 17.61208871 -4.27584397 20.91800924 1.859375 24.47265625 C6.29710589 27.51919373 8.44444153 30.09677709 9.8125 35.3125 C10.17594209 40.11902161 8.70414181 43.70051715 5.8125 47.5 C0.67838779 51.77842684 -3.65212465 51.98857831 -10.23046875 51.7734375 C-14.07476694 51.41795418 -17.50083395 50.63435878 -21.1875 49.5 C-21.5175 50.16 -21.8475 50.82 -22.1875 51.5 C-22.8475 51.5 -23.5075 51.5 -24.1875 51.5 C-24.1875 45.89 -24.1875 40.28 -24.1875 34.5 C-23.5275 34.5 -22.8675 34.5 -22.1875 34.5 C-21.9915625 35.17546875 -21.795625 35.8509375 -21.59375 36.546875 C-19.44855302 42.95786665 -19.44855302 42.95786665 -14.4375 47.1875 C-9.98786284 48.94240363 -6.77930907 48.74523636 -2.1875 47.5 C0.4317182 45.29003464 0.73951746 43.92877241 1.3125 40.5625 C0.66703882 36.60905024 -1.206953 34.94929416 -4.1875 32.5 C-7.7078806 30.10626524 -11.36754446 27.9372369 -15.03710938 25.78125 C-20.14043949 22.63382174 -22.77494805 20.03804801 -25.1875 14.5 C-25.61149601 9.54139274 -24.461137 6.41170874 -21.3125 2.5625 C-16.10490855 -3.18155187 -6.81835371 -2.95601429 0 0 Z " fill="#115888" transform="translate(394.1875,16.5)"/>
<path d="M0 0 C0.928125 0.495 1.85625 0.99 2.8125 1.5 C3.1425 0.51 3.4725 -0.48 3.8125 -1.5 C4.4725 -1.5 5.1325 -1.5 5.8125 -1.5 C5.8125 4.11 5.8125 9.72 5.8125 15.5 C5.1525 15.5 4.4925 15.5 3.8125 15.5 C3.60496094 14.82453125 3.39742187 14.1490625 3.18359375 13.453125 C1.10188327 7.22880175 1.10188327 7.22880175 -3.5 2.8125 C-7.71497922 1.31225316 -9.92309855 1.18787648 -14.1875 2.5 C-16.33532671 4.05797882 -16.33532671 4.05797882 -17.1875 6.5 C-17.58183024 9.48212014 -17.58183024 9.48212014 -16.1875 12.5 C-11.2004352 17.61208871 -4.27584397 20.91800924 1.859375 24.47265625 C6.29710589 27.51919373 8.44444153 30.09677709 9.8125 35.3125 C10.17594209 40.11902161 8.70414181 43.70051715 5.8125 47.5 C0.67838779 51.77842684 -3.65212465 51.98857831 -10.23046875 51.7734375 C-14.07476694 51.41795418 -17.50083395 50.63435878 -21.1875 49.5 C-21.5175 50.16 -21.8475 50.82 -22.1875 51.5 C-22.8475 51.5 -23.5075 51.5 -24.1875 51.5 C-24.1875 45.89 -24.1875 40.28 -24.1875 34.5 C-23.5275 34.5 -22.8675 34.5 -22.1875 34.5 C-21.9915625 35.17546875 -21.795625 35.8509375 -21.59375 36.546875 C-19.44855302 42.95786665 -19.44855302 42.95786665 -14.4375 47.1875 C-9.98786284 48.94240363 -6.77930907 48.74523636 -2.1875 47.5 C0.4317182 45.29003464 0.73951746 43.92877241 1.3125 40.5625 C0.66703882 36.60905024 -1.206953 34.94929416 -4.1875 32.5 C-7.7078806 30.10626524 -11.36754446 27.9372369 -15.03710938 25.78125 C-20.14043949 22.63382174 -22.77494805 20.03804801 -25.1875 14.5 C-25.61149601 9.54139274 -24.461137 6.41170874 -21.3125 2.5625 C-16.10490855 -3.18155187 -6.81835371 -2.95601429 0 0 Z " fill="#115888" transform="translate(239.1875,16.5)"/>
<path d="M0 0 C6.27 0 12.54 0 19 0 C19 0.66 19 1.32 19 2 C19.66 2 20.32 2 21 2 C21.99 7.61 22.98 13.22 24 19 C24.66 19 25.32 19 26 19 C26.33 20.98 26.66 22.96 27 25 C29.64 25.33 32.28 25.66 35 26 C35.74743207 22.43314781 35.74743207 22.43314781 35 19 C32.79008584 16.90942365 32.79008584 16.90942365 30.0625 15 C25.14105919 11.40302627 25.14105919 11.40302627 23.6875 7.25 C24.03394852 3.64693535 24.45935159 2.5082146 27 0 C29.69921875 -0.390625 29.69921875 -0.390625 32.6875 -0.25 C33.68136719 -0.21390625 34.67523438 -0.1778125 35.69921875 -0.140625 C36.45847656 -0.09421875 37.21773437 -0.0478125 38 0 C38 2.97 38 5.94 38 9 C36.25372522 6.38058783 35.61277612 4.96175123 35 2 C33.02 2 31.04 2 29 2 C28.67 3.65 28.34 5.3 28 7 C28.45890625 7.38671875 28.9178125 7.7734375 29.390625 8.171875 C30.65915989 9.24853066 31.9206211 10.33356278 33.17578125 11.42578125 C34.56935383 12.62837172 35.9965377 13.79211971 37.4375 14.9375 C39 17 39 17 39.5 20.5 C39 24 39 24 37.5625 26.5 C33.68203336 28.77149267 30.28102227 27.84156848 26 27 C25.67 28.65 25.34 30.3 25 32 C24.13375 31.4740625 24.13375 31.4740625 23.25 30.9375 C21.07648452 29.82754596 21.07648452 29.82754596 18.875 30.1875 C16.63753682 30.95555364 16.63753682 30.95555364 15 34 C14.67 32.02 14.34 30.04 14 28 C11.03 28 8.06 28 5 28 C5 27.34 5 26.68 5 26 C5.99 26 6.98 26 8 26 C8 18.08 8 10.16 8 2 C6.02 2 4.04 2 2 2 C1.34 3.32 0.68 4.64 0 6 C0 4.02 0 2.04 0 0 Z " fill="#206494" transform="translate(36,54)"/>
<path d="M0 0 C2.0234375 1.5234375 2.0234375 1.5234375 4 4 C4.07662751 6.71732932 3.98120254 8.96874679 3.625 11.625 C3.32502568 14.09978816 3.12274285 16.50422869 3 19 C3.66 19.66 4.32 20.32 5 21 C5.24291992 23.32250977 5.24291992 23.32250977 5.23046875 26.19140625 C5.22853516 27.21814453 5.22660156 28.24488281 5.22460938 29.30273438 C5.20624023 30.91631836 5.20624023 30.91631836 5.1875 32.5625 C5.18685547 33.64208984 5.18621094 34.72167969 5.18554688 35.83398438 C5.14014598 43.85985402 5.14014598 43.85985402 4 45 C5.485 45.495 5.485 45.495 7 46 C6.22095672 56.55808656 6.22095672 56.55808656 4 61 C3.01 61 2.02 61 1 61 C0.67 53.41 0.34 45.82 0 38 C-0.99 38 -1.98 38 -3 38 C-3.2475 37.40445313 -3.495 36.80890625 -3.75 36.1953125 C-5.1917961 33.66315809 -6.6275501 32.54094828 -9 30.875 C-11.19111681 29.32027373 -13.09558225 27.90441775 -15 26 C-14.625 23.375 -14.625 23.375 -14 21 C-11.6875 20.3125 -11.6875 20.3125 -9 20 C-6.9820846 21.51343655 -6.12530066 22.74939867 -5 25 C-5 23.35 -5 21.7 -5 20 C-7.97 19.67 -10.94 19.34 -14 19 C-12.68 18.67 -11.36 18.34 -10 18 C-10 13.38 -10 8.76 -10 4 C-6 2 -6 2 -3.875 2.3125 C-2 3 -2 3 0 4 C0 2.68 0 1.36 0 0 Z " fill="#23577F" transform="translate(78,35)"/>
<path d="M0 0 C13.86 0 27.72 0 42 0 C43.20272819 2.40545638 43.10071472 3.94996953 43.0625 6.625 C43.05347656 7.44226563 43.04445312 8.25953125 43.03515625 9.1015625 C43.02355469 9.72804688 43.01195312 10.35453125 43 11 C42.01 10.67 41.02 10.34 40 10 C39.690625 9.195625 39.38125 8.39125 39.0625 7.5625 C38.25683318 4.92493207 38.25683318 4.92493207 36.23046875 3.87890625 C33.83937409 2.93670608 31.80489581 2.60043198 29.25 2.375 C28.45078125 2.30023437 27.6515625 2.22546875 26.828125 2.1484375 C26.22484375 2.09945313 25.6215625 2.05046875 25 2 C25.0687703 8.21174426 25.15668504 14.42280849 25.26245117 20.6340332 C25.29573128 22.74756336 25.32375353 24.86118306 25.34643555 26.97485352 C25.37992472 30.01096806 25.43223764 33.04625975 25.48828125 36.08203125 C25.49467117 37.02899368 25.5010611 37.97595612 25.50764465 38.95161438 C25.53733589 40.27264412 25.53733589 40.27264412 25.56762695 41.62036133 C25.57873001 42.39535477 25.58983307 43.17034821 25.60127258 43.96882629 C26.10665442 46.54331265 26.9868662 47.36174002 29 49 C29.99 49.66 30.98 50.32 32 51 C24.74 51 17.48 51 10 51 C12 50 14 49 16 48 C16.33 32.82 16.66 17.64 17 2 C8.54948877 2.13364012 8.54948877 2.13364012 5 5.375 C2.85451744 7.89743854 2.85451744 7.89743854 2 11 C1.34 11 0.68 11 0 11 C0 7.37 0 3.74 0 0 Z " fill="#0F5889" transform="translate(152,16)"/>
<path d="M0 0 C2.796875 0.05859375 2.796875 0.05859375 6 1 C7.45057793 3.44223408 8.33731809 5.41788551 9.25 8.0625 C9.83403028 9.61009609 10.42009031 11.1569272 11.0078125 12.703125 C11.32137695 13.54810547 11.63494141 14.39308594 11.95800781 15.26367188 C13.88777006 20.33133244 16.0219751 25.31488414 18.125 30.3125 C19.33935297 33.22142734 20.55174557 36.13115828 21.76269531 39.04150391 C22.64051815 41.14044968 23.5260819 43.23616558 24.41699219 45.32958984 C24.87493164 46.41062988 25.33287109 47.49166992 25.8046875 48.60546875 C26.43479736 50.08309692 26.43479736 50.08309692 27.07763672 51.59057617 C28 54 28 54 28 56 C25.03 56 22.06 56 19 56 C16.06859753 50.99628616 13.4106114 45.93218131 10.9375 40.6875 C10.58751953 39.94636963 10.23753906 39.20523926 9.87695312 38.44165039 C7.38468769 33.06227615 5.46218286 27.75734501 4 22 C-2.93 21.505 -2.93 21.505 -10 21 C-10 20.67 -10 20.34 -10 20 C-5.71 20 -1.42 20 3 20 C2.2575 16.9990625 2.2575 16.9990625 1.5 13.9375 C0.38122411 9.12623842 -0.34307886 4.91746364 0 0 Z " fill="#1B6092" transform="translate(22,51)"/>
<path d="M0 0 C7.59 0 15.18 0 23 0 C21 1 19 2 17 3 C17 17.85 17 32.7 17 48 C18.98 48.66 20.96 49.32 23 50 C23 50.33 23 50.66 23 51 C15.41 51 7.82 51 0 51 C2 50 4 49 6 48 C7.30466446 44.08600663 7.1427824 40.36027995 7.1328125 36.28125 C7.13376923 35.42696411 7.13472595 34.57267822 7.13571167 33.69250488 C7.13639193 31.88696214 7.13454835 30.08141694 7.13037109 28.27587891 C7.12502068 25.51068636 7.13032127 22.74565624 7.13671875 19.98046875 C7.13605794 18.22656214 7.13477672 16.47265563 7.1328125 14.71875 C7.13483673 13.89056763 7.13686096 13.06238525 7.13894653 12.20910645 C7.12536316 8.88712618 7.05782192 6.17346575 6 3 C2.99152582 1.77479736 2.99152582 1.77479736 0 1 C0 0.67 0 0.34 0 0 Z " fill="#0F5889" transform="translate(341,16)"/>
<path d="M0 0 C2 1 2 1 2 1 Z M-1 1 C0.6396875 1.2475 0.6396875 1.2475 2.3125 1.5 C5.87525873 2.06718184 5.87525873 2.06718184 9 2 C10.32 2 11.64 2 13 2 C12.36045497 15.30253663 8.5590756 27.97052492 3 40 C-0.76586446 38.11706777 -1.79071512 33.27688902 -3.23291016 29.50805664 C-6.37469618 19.82771593 -3.65719756 10.52747024 -1 1 Z " fill="#1F5680" transform="translate(92,34)"/>
<path d="M0 0 C1.90845703 0.16628906 1.90845703 0.16628906 3.85546875 0.3359375 C4.83128906 0.43132812 5.80710937 0.52671875 6.8125 0.625 C7.6058855 2.66599935 8.3971303 4.7078309 9.1875 6.75 C9.62835937 7.88695313 10.06921875 9.02390625 10.5234375 10.1953125 C11.69704703 13.31782513 12.78092774 16.45315631 13.8125 19.625 C5.78242764 21.13063857 -2.10182876 20.26282601 -10.1875 19.625 C-10.26819658 16.66612541 -10.32784665 13.7094341 -10.375 10.75 C-10.40013672 9.90824219 -10.42527344 9.06648438 -10.45117188 8.19921875 C-10.46083984 7.39355469 -10.47050781 6.58789062 -10.48046875 5.7578125 C-10.4961792 5.01418457 -10.51188965 4.27055664 -10.52807617 3.50439453 C-10.41568604 2.88419434 -10.3032959 2.26399414 -10.1875 1.625 C-6.35207543 -0.93194972 -4.52847467 -0.41545639 0 0 Z " fill="#F6D225" transform="translate(22.1875,78.375)"/>
<path d="M0 0 C0.79148437 -0.01417969 1.58296875 -0.02835937 2.3984375 -0.04296875 C4.625 0.1875 4.625 0.1875 7.625 2.1875 C7.8474948 4.99390107 7.90588481 7.51866892 7.8125 10.3125 C7.750625 12.91125 7.68875 15.51 7.625 18.1875 C0.365 18.1875 -6.895 18.1875 -14.375 18.1875 C-14.705 17.1975 -15.035 16.2075 -15.375 15.1875 C-14.715 15.1875 -14.055 15.1875 -13.375 15.1875 C-13.21644531 14.59582031 -13.05789062 14.00414063 -12.89453125 13.39453125 C-11.32314538 8.07265536 -9.73659473 4.86042188 -5.375 1.1875 C-3.79539731 -0.39210269 -2.17963184 0.01763456 0 0 Z " fill="#F8DA24" transform="translate(125.375,77.8125)"/>
<path d="M0 0 C1.98 0 3.96 0 6 0 C9.25643639 6.16396888 11.72401366 12.41416719 14 19 C16.84555192 12.7337314 19.48568591 6.40615131 22 0 C24.31 0 26.62 0 29 0 C28.01 0.66 27.02 1.32 26 2 C25.56715444 4.38704372 25.56715444 4.38704372 25.671875 7.15625 C25.67703125 8.17847656 25.6821875 9.20070313 25.6875 10.25390625 C25.708125 11.32511719 25.72875 12.39632812 25.75 13.5 C25.75515625 14.57121094 25.7603125 15.64242187 25.765625 16.74609375 C25.58945822 22.04158466 25.58945822 22.04158466 27 27 C25.02 27 23.04 27 21 27 C21 21.06 21 15.12 21 9 C18.69 14.94 16.38 20.88 14 27 C11.24615082 24.24615082 10.25103963 20.94248232 8.875 17.375 C7.92625 14.94125 6.9775 12.5075 6 10 C6 15.61 6 21.22 6 27 C4.02 27 2.04 27 0 27 C0.66 26.34 1.32 25.68 2 25 C2.31081337 22.60823522 2.31081337 22.60823522 2.265625 19.84375 C2.26820312 18.82152344 2.27078125 17.79929687 2.2734375 16.74609375 C2.26570313 15.67488281 2.25796875 14.60367188 2.25 13.5 C2.26160156 11.89318359 2.26160156 11.89318359 2.2734375 10.25390625 C2.26957031 8.72056641 2.26957031 8.72056641 2.265625 7.15625 C2.26336914 6.21587891 2.26111328 5.27550781 2.25878906 4.30664062 C2.22098716 1.80508033 2.22098716 1.80508033 0 0 Z " fill="#E8EDF0" transform="translate(80,54)"/>
<path d="M0 0 C0.66 0.33 1.32 0.66 2 1 C2.37890625 3.15234375 2.37890625 3.15234375 2.5625 5.9375 C2.6346875 6.92234375 2.706875 7.9071875 2.78125 8.921875 C2.8534375 9.93765625 2.925625 10.9534375 3 12 C3.18061917 13.89650125 3.36757702 15.79241549 3.5625 17.6875 C3.68818359 18.93080078 3.68818359 18.93080078 3.81640625 20.19921875 C3.87699219 20.79347656 3.93757813 21.38773438 4 22 C3.34 22 2.68 22 2 22 C2 21.34 2 20.68 2 20 C-1.96 20 -5.92 20 -10 20 C-10.50690584 17.93918639 -11.00524619 15.87626474 -11.5 13.8125 C-11.7784375 12.66394531 -12.056875 11.51539063 -12.34375 10.33203125 C-12.91495385 7.43181171 -13.13283779 4.93903615 -13 2 C-12.071875 2.165 -11.14375 2.33 -10.1875 2.5 C-5.73091903 3.31758136 -5.73091903 3.31758136 -1.8125 1.5 C-1.214375 1.005 -0.61625 0.51 0 0 Z " fill="#1F557F" transform="translate(53,34)"/>
<path d="M0 0 C2.40201504 4.19879794 2.15864149 7.24075541 2 12 C-3.68695405 14.52753513 -9.9343226 15.48078547 -16 14 C-19.37802489 11.0920061 -21.76576645 7.84419597 -24 4 C-24 3.67 -24 3.34 -24 3 C-23.10539062 3.03480469 -22.21078125 3.06960937 -21.2890625 3.10546875 C-13.60716788 3.27745147 -7.18699699 2.78206335 0 0 Z " fill="#EF9432" transform="translate(67,108)"/>
<path d="M0 0 C4.25047624 3.51698698 5.79587594 7.62646808 7.75 12.625 C8.22373047 13.78902344 8.22373047 13.78902344 8.70703125 14.9765625 C11 20.69409497 11 20.69409497 11 23 C8.03 23 5.06 23 2 23 C-0.35714141 18.98412945 -2.63059346 14.92642993 -4.8125 10.8125 C-5.47185547 9.58466797 -5.47185547 9.58466797 -6.14453125 8.33203125 C-7.10614224 5.71065335 -6.96448742 4.57393881 -6 2 C-5.01 2.33 -4.02 2.66 -3 3 C-2.01 2.01 -1.02 1.02 0 0 Z " fill="#1A6698" transform="translate(39,84)"/>
<path d="M0 0 C3.32006187 1.10668729 4.0582597 1.94572595 6.25 4.5625 C7.15685547 5.63177734 7.15685547 5.63177734 8.08203125 6.72265625 C8.71496094 7.47417969 9.34789062 8.22570312 10 9 C11.30943715 10.50267448 12.62179103 12.00281393 13.9375 13.5 C14.95833333 14.66666667 15.97916667 15.83333333 17 17 C17.02691685 14.54159395 17.04679802 12.08348118 17.0625 9.625 C17.07087891 8.92632812 17.07925781 8.22765625 17.08789062 7.5078125 C17.1835442 3.62704624 17.1835442 3.62704624 16 0 C17.65 0 19.3 0 21 0 C20.67 7.92 20.34 15.84 20 24 C16.26127283 22.13063641 14.37014801 20.61170902 11.5 17.6875 C10.37078125 16.54861328 10.37078125 16.54861328 9.21875 15.38671875 C7.01270689 13.01366885 4.99012422 10.55550041 3 8 C2.94615479 10.29141286 2.90727913 12.58318188 2.875 14.875 C2.84019531 16.78925781 2.84019531 16.78925781 2.8046875 18.7421875 C2.64358476 22.08593338 2.64358476 22.08593338 5 24 C2.36 24 -0.28 24 -3 24 C-2.01 23.67 -1.02 23.34 0 23 C0 15.41 0 7.82 0 0 Z " fill="#DDAE1C" transform="translate(221,86)"/>
<path d="M0 0 C0.50812114 2.51943396 1.00664534 5.04016873 1.5 7.5625 C1.64308594 8.26697266 1.78617188 8.97144531 1.93359375 9.69726562 C2.80874925 14.21890238 3.14523405 18.39487028 3 23 C0.69 23.33 -1.62 23.66 -4 24 C-6.48605403 16.1977858 -8.56993514 9.26405949 -8 1 C-5.29889598 -0.35055201 -2.99210994 0 0 0 Z " fill="#196698" transform="translate(60,83)"/>
<path d="M0 0 C9 0 9 0 11 1 C11.35802755 6.73589971 10.27989617 10.7050356 8 15.9375 C7.71382812 16.62134766 7.42765625 17.30519531 7.1328125 18.00976562 C6.43291583 19.67785269 5.71800007 21.33962483 5 23 C1.51768094 21.25884047 1.03761541 17.15333238 -0.1875 13.625 C-0.47302734 12.84382813 -0.75855469 12.06265625 -1.05273438 11.2578125 C-1.31763672 10.505 -1.58253906 9.7521875 -1.85546875 8.9765625 C-2.09934326 8.28643066 -2.34321777 7.59629883 -2.59448242 6.88525391 C-3 5 -3 5 -2 2 C-1.34 2 -0.68 2 0 2 C0 1.34 0 0.68 0 0 Z " fill="#206697" transform="translate(90,51)"/>
<path d="M0 0 C2.86347193 3.41546652 4.56987461 7.16386982 6.25 11.25 C6.53101562 11.88035156 6.81203125 12.51070312 7.1015625 13.16015625 C9.17329285 18.19589685 9.07623901 21.66460237 8 27 C7 29 7 29 4.93359375 29.8515625 C4.10988281 30.10679688 3.28617187 30.36203125 2.4375 30.625 C1.19806641 31.01558594 1.19806641 31.01558594 -0.06640625 31.4140625 C-0.70449219 31.60742188 -1.34257813 31.80078125 -2 32 C-1.855625 31.19820312 -1.71125 30.39640625 -1.5625 29.5703125 C0.0591567 19.63766523 0.20488055 10.03914676 0 0 Z " fill="#1F6898" transform="translate(85,62)"/>
<path d="M0 0 C0.05447047 1.41623216 0.09300508 2.83308191 0.125 4.25 C0.14820312 5.03890625 0.17140625 5.8278125 0.1953125 6.640625 C-0.02685575 9.32441749 -0.49084225 10.77109009 -2 13 C-4.05859375 14.484375 -4.05859375 14.484375 -6.4375 15.75 C-7.21996094 16.17796875 -8.00242187 16.6059375 -8.80859375 17.046875 C-11 18 -11 18 -14 18 C-15.40070423 10.06267606 -15.40070423 10.06267606 -14 6 C-11.6015625 3.9453125 -11.6015625 3.9453125 -8.625 2.125 C-7.64789063 1.50882812 -6.67078125 0.89265625 -5.6640625 0.2578125 C-3 -1 -3 -1 0 0 Z " fill="#F1C128" transform="translate(83,101)"/>
<path d="M0 0 C2.31 0.66 4.62 1.32 7 2 C7.33 8.93 7.66 15.86 8 23 C5.69 23.99 3.38 24.98 1 26 C-0.35601573 17.70651092 -1.70351196 9.42578277 -1 1 C-0.67 0.67 -0.34 0.34 0 0 Z " fill="#2A4C6A" transform="translate(62,80)"/>
<path d="M0 0 C1.47919922 0.06960937 1.47919922 0.06960937 2.98828125 0.140625 C3.98214844 0.17671875 4.97601563 0.2128125 6 0.25 C7.13888672 0.31960937 7.13888672 0.31960937 8.30078125 0.390625 C8.30078125 3.360625 8.30078125 6.330625 8.30078125 9.390625 C6.55450647 6.77121283 5.91355737 5.35237623 5.30078125 2.390625 C3.32078125 2.390625 1.34078125 2.390625 -0.69921875 2.390625 C-1.02921875 4.040625 -1.35921875 5.690625 -1.69921875 7.390625 C-1.2403125 7.77734375 -0.78140625 8.1640625 -0.30859375 8.5625 C0.95994114 9.63915566 2.22140235 10.72418778 3.4765625 11.81640625 C4.87013508 13.01899672 6.29731895 14.18274471 7.73828125 15.328125 C9.30078125 17.390625 9.30078125 17.390625 9.80078125 20.890625 C9.30078125 24.390625 9.30078125 24.390625 7.86328125 26.890625 C4.41723627 28.90782206 2.1594619 28.34676485 -1.67578125 27.65234375 C-3.76466897 27.19074523 -3.76466897 27.19074523 -5.69921875 28.390625 C-5.69921875 25.420625 -5.69921875 22.450625 -5.69921875 19.390625 C-5.03921875 19.390625 -4.37921875 19.390625 -3.69921875 19.390625 C-3.36921875 21.370625 -3.03921875 23.350625 -2.69921875 25.390625 C-0.05921875 25.720625 2.58078125 26.050625 5.30078125 26.390625 C6.04821332 22.82377281 6.04821332 22.82377281 5.30078125 19.390625 C3.09086709 17.30004865 3.09086709 17.30004865 0.36328125 15.390625 C-4.55815956 11.79365127 -4.55815956 11.79365127 -6.01171875 7.640625 C-5.58840165 3.23812711 -4.64007419 0.67150133 0 0 Z " fill="#EBF0F3" transform="translate(65.69921875,53.609375)"/>
<path d="M0 0 C0.33 0 0.66 0 1 0 C1 6.27 1 12.54 1 19 C0.01 19 -0.98 19 -2 19 C-2 19.66 -2 20.32 -2 21 C-0.68 21.33 0.64 21.66 2 22 C1.34 23.98 0.68 25.96 0 28 C1.65 28.33 3.3 28.66 5 29 C1.6888987 30.10370043 -0.24748949 29.92673641 -3.6875 29.5625 C-4.68136719 29.46066406 -5.67523438 29.35882813 -6.69921875 29.25390625 C-7.45847656 29.17011719 -8.21773438 29.08632812 -9 29 C-7.1859968 18.67291162 -4.14672755 9.5817588 0 0 Z " fill="#2D4E6B" transform="translate(101,61)"/>
<path d="M0 0 C6.93 0 13.86 0 21 0 C20.67 1.32 20.34 2.64 20 4 C17.69 3.34 15.38 2.68 13 2 C13 8.93 13 15.86 13 23 C13.99 23.33 14.98 23.66 16 24 C12.7 24 9.4 24 6 24 C6.66 23.67 7.32 23.34 8 23 C8 16.07 8 9.14 8 2 C5.69 2 3.38 2 1 2 C0.67 2.66 0.34 3.32 0 4 C0 2.68 0 1.36 0 0 Z " fill="#C7A125" transform="translate(485,86)"/>
<path d="M0 0 C1.65 0 3.3 0 5 0 C5.02505615 0.56509277 5.0501123 1.13018555 5.07592773 1.71240234 C5.19179956 4.26683742 5.31456537 6.8208955 5.4375 9.375 C5.47681641 10.26445313 5.51613281 11.15390625 5.55664062 12.0703125 C5.59853516 12.92109375 5.64042969 13.771875 5.68359375 14.6484375 C5.72025146 15.43395996 5.75690918 16.21948242 5.79467773 17.02880859 C5.890891 19.07523496 5.890891 19.07523496 7 21 C10.41656024 21.16677282 10.41656024 21.16677282 14 21 C16.17990127 19.234465 16.17990127 19.234465 16.22705078 17.02880859 C16.21657715 16.24328613 16.20610352 15.45776367 16.1953125 14.6484375 C16.18886719 13.79765625 16.18242187 12.946875 16.17578125 12.0703125 C16.15902344 11.18085937 16.14226562 10.29140625 16.125 9.375 C16.11597656 8.4778125 16.10695312 7.580625 16.09765625 6.65625 C16.0740497 4.43723414 16.0411231 2.21874923 16 0 C17.32 0.33 18.64 0.66 20 1 C19.93981323 3.89799287 19.85272994 6.79096237 19.75 9.6875 C19.72873047 10.91243164 19.72873047 10.91243164 19.70703125 12.16210938 C19.54643493 16.12883853 19.26281197 18.53889521 17.265625 22.04296875 C14.62419217 24.32462022 13.45170945 24.67761752 10 24.625 C8.7315625 24.64433594 8.7315625 24.64433594 7.4375 24.6640625 C5 24 5 24 2.734375 22.07421875 C0.31615955 17.7878774 0.32951573 14.03434515 0.25 9.1875 C0.22035156 8.30384766 0.19070312 7.42019531 0.16015625 6.50976562 C0.0897961 4.34032782 0.04259393 2.17016052 0 0 Z " fill="#E0AF1B" transform="translate(175,86)"/>
<path d="M0 0 C0.33 0 0.66 0 1 0 C1 6.6 1 13.2 1 20 C2.98 19.01 4.96 18.02 7 17 C9 20 9 20 8.875 22.625 C7.74097859 26.9990826 5.94363168 30.93193369 4 35 C1.23723823 34.47731534 -1.3260876 33.89130413 -4 33 C-3.67 31.02 -3.34 29.04 -3 27 C-3.99 26.67 -4.98 26.34 -6 26 C-6 25.34 -6 24.68 -6 24 C-3.69 24 -1.38 24 1 24 C0.67 23.67 0.34 23.34 0 23 C-0.08713831 21.29227642 -0.10700007 19.58101351 -0.09765625 17.87109375 C-0.09443359 16.83662109 -0.09121094 15.80214844 -0.08789062 14.73632812 C-0.07951172 13.64771484 -0.07113281 12.55910156 -0.0625 11.4375 C-0.05798828 10.34501953 -0.05347656 9.25253906 -0.04882812 8.12695312 C-0.03699826 5.41791505 -0.02051543 2.70898401 0 0 Z " fill="#2F729E" transform="translate(105,56)"/>
<path d="M0 0 C4.62 0 9.24 0 14 0 C14 1.98 14 3.96 14 6 C14.66 6 15.32 6 16 6 C16 4.02 16 2.04 16 0 C17.32 0.33 18.64 0.66 20 1 C18.35 5.29 16.7 9.58 15 14 C12 13 12 13 10 10 C9.34 11.32 8.68 12.64 8 14 C7.34 14 6.68 14 6 14 C4.02 9.38 2.04 4.76 0 0 Z M6 1 C6.34444881 3.47266765 6.34444881 3.47266765 7 6 C7.66 6.33 8.32 6.66 9 7 C9 5.35 9 3.7 9 2 C8.01 1.67 7.02 1.34 6 1 Z " fill="#155885" transform="translate(401,127)"/>
<path d="M0 0 C0.99 0 1.98 0 3 0 C3 3.63 3 7.26 3 11 C4.98 11 6.96 11 9 11 C9.33 10.34 9.66 9.68 10 9 C10.391875 10.051875 10.78375 11.10375 11.1875 12.1875 C13.28817095 17.10565852 16.58637043 20.05758029 21 23 C17.875 23.4375 17.875 23.4375 14 23 C11.01408815 20.48311413 8.74353784 17.48707567 7 14 C6.01 13.67 5.02 13.34 4 13 C4.33 16.3 4.66 19.6 5 23 C3.02 23 1.04 23 -1 23 C-0.67 15.41 -0.34 7.82 0 0 Z " fill="#E5B219" transform="translate(380,87)"/>
<path d="M0 0 C3.96 0 7.92 0 12 0 C11.67 0.99 11.34 1.98 11 3 C8.03 2.505 8.03 2.505 5 2 C5 4.64 5 7.28 5 10 C7.31 10 9.62 10 12 10 C11.67 11.32 11.34 12.64 11 14 C9.02 13.34 7.04 12.68 5 12 C5.33 15.3 5.66 18.6 6 22 C10.627322 22.372678 10.627322 22.372678 13 21 C13 21.99 13 22.98 13 24 C8.71 24 4.42 24 0 24 C0 16.08 0 8.16 0 0 Z " fill="#DFAE1C" transform="translate(341,86)"/>
<path d="M0 0 C1.98 0 3.96 0 6 0 C6.18175781 0.65226562 6.36351562 1.30453125 6.55078125 1.9765625 C6.92783203 3.28753906 6.92783203 3.28753906 7.3125 4.625 C7.55613281 5.48351562 7.79976563 6.34203125 8.05078125 7.2265625 C9.14354227 10.62081155 9.14354227 10.62081155 12 16 C13.98 10.72 15.96 5.44 18 0 C19.65 0 21.3 0 23 0 C22.13375 1.175625 22.13375 1.175625 21.25 2.375 C18.9158346 5.85981031 17.50626365 9.54907138 16.015625 13.453125 C14.56402389 17.09329393 12.80323831 20.52232612 11 24 C8.25032546 22.62516273 8.14457488 21.23450201 7.08984375 18.37890625 C6.73986328 17.44369141 6.38988281 16.50847656 6.02929688 15.54492188 C5.48885742 14.06862305 5.48885742 14.06862305 4.9375 12.5625 C4.21816854 10.62603424 3.49814986 8.68982358 2.77734375 6.75390625 C2.46015381 5.89095947 2.14296387 5.0280127 1.81616211 4.13891602 C1.03777574 1.99308425 1.03777574 1.99308425 0 0 Z " fill="#E2B01A" transform="translate(297,86)"/>
<path d="M0 0 C2.31 0 4.62 0 7 0 C7.67119549 1.4562545 8.33681807 2.91507867 9 4.375 C9.556875 5.59316406 9.556875 5.59316406 10.125 6.8359375 C11 9 11 9 11 11 C11.66 11 12.32 11 13 11 C13.28875 10.113125 13.5775 9.22625 13.875 8.3125 C14.83148748 5.49617576 15.86798946 2.74916844 17 0 C18.65 0 20.3 0 22 0 C21.59007812 0.60328125 21.18015625 1.2065625 20.7578125 1.828125 C20.21898437 2.62734375 19.68015625 3.4265625 19.125 4.25 C18.59132813 5.03890625 18.05765625 5.8278125 17.5078125 6.640625 C14.95966092 10.62788809 13.75053847 13.49317933 13.375 18.25 C13.30023437 19.14203125 13.22546875 20.0340625 13.1484375 20.953125 C13.09945312 21.62859375 13.05046875 22.3040625 13 23 C13.99 23.33 14.98 23.66 16 24 C13.03 24 10.06 24 7 24 C7.66 23.67 8.32 23.34 9 23 C8.96498065 13.7899104 6.62141135 6.62141135 0 0 Z " fill="#DEAE1C" transform="translate(524,86)"/>
<path d="M0 0 C44.55 0 89.1 0 135 0 C135 0.33 135 0.66 135 1 C90.45 1 45.9 1 0 1 C0 0.67 0 0.34 0 0 Z " fill="#F0B717" transform="translate(430,135)"/>
<path d="M0 0 C1.17433594 0.01417969 2.34867188 0.02835937 3.55859375 0.04296875 C5.32396484 0.05263672 5.32396484 0.05263672 7.125 0.0625 C9.99609375 0.23046875 9.99609375 0.23046875 10.99609375 1.23046875 C11.13724536 3.90105726 11.03856482 6.55479113 10.99609375 9.23046875 C10.01769531 9.08738281 10.01769531 9.08738281 9.01953125 8.94140625 C2.82691632 8.15591232 -1.33504871 8.39603998 -7.00390625 11.23046875 C-6.72148984 9.77031584 -6.42764011 8.31237082 -6.12890625 6.85546875 C-5.96648437 6.04335937 -5.8040625 5.23125 -5.63671875 4.39453125 C-4.61282825 0.89307855 -3.61680577 0.27749225 0 0 Z " fill="#EE9232" transform="translate(123.00390625,70.76953125)"/>
<path d="M0 0 C6.27 0 12.54 0 19 0 C19 1.98 19 3.96 19 6 C18.34 5.01 17.68 4.02 17 3 C14.03 2.505 14.03 2.505 11 2 C11 9.92 11 17.84 11 26 C11.99 26.33 12.98 26.66 14 27 C11.03 27 8.06 27 5 27 C5.99 26.67 6.98 26.34 8 26 C8 18.08 8 10.16 8 2 C6.02 2 4.04 2 2 2 C1.34 3.32 0.68 4.64 0 6 C0 4.02 0 2.04 0 0 Z " fill="#F4F7F8" transform="translate(36,54)"/>
<path d="M0 0 C40.92 0 81.84 0 124 0 C124 0.33 124 0.66 124 1 C83.08 1 42.16 1 0 1 C0 0.67 0 0.34 0 0 Z " fill="#F0B815" transform="translate(158,135)"/>
<path d="M0 0 C2.31 0 4.62 0 7 0 C7 1.32 7 2.64 7 4 C7.66 2.68 8.32 1.36 9 0 C10.98 0 12.96 0 15 0 C13.35 1.65 11.7 3.3 10 5 C11.2491742 8.45925163 12.67527795 11.14693203 15 14 C12.66705225 14.04241723 10.33297433 14.04092937 8 14 C7.67 13.67 7.34 13.34 7 13 C7 13.33 7 13.66 7 14 C4.69 14 2.38 14 0 14 C0.66 13.67 1.32 13.34 2 13 C1.85915204 11.20793453 1.71216299 9.41635083 1.5625 7.625 C1.48128906 6.62726563 1.40007812 5.62953125 1.31640625 4.6015625 C1.15034374 2.02072387 1.15034374 2.02072387 0 0 Z " fill="#145785" transform="translate(348,127)"/>
<path d="M0 0 C1.21236328 0.04060547 1.21236328 0.04060547 2.44921875 0.08203125 C3.06410156 0.11683594 3.67898438 0.15164062 4.3125 0.1875 C4.3125 1.8375 4.3125 3.4875 4.3125 5.1875 C3.920625 4.671875 3.52875 4.15625 3.125 3.625 C2.2278125 2.9134375 2.2278125 2.9134375 1.3125 2.1875 C-1.34216049 2.41793864 -1.34216049 2.41793864 -3.6875 3.1875 C-3.42661731 6.70941627 -2.44435408 7.40025268 0.3125 9.8125 C1.3025 10.59625 2.2925 11.38 3.3125 12.1875 C4.83741998 15.23733996 4.54812548 17.8298369 4.3125 21.1875 C3.08984375 22.8984375 3.08984375 22.8984375 1.3125 24.1875 C-0.94921875 24.48046875 -0.94921875 24.48046875 -3.375 24.375 C-4.18324219 24.34792969 -4.99148438 24.32085937 -5.82421875 24.29296875 C-6.43910156 24.25816406 -7.05398438 24.22335938 -7.6875 24.1875 C-7.3575 22.8675 -7.0275 21.5475 -6.6875 20.1875 C-6.0275 20.8475 -5.3675 21.5075 -4.6875 22.1875 C-2.08469432 21.86708603 -2.08469432 21.86708603 0.3125 21.1875 C0.27548724 18.36312802 0.27548724 18.36312802 -0.6875 15.1875 C-1.6775 14.383125 -2.6675 13.57875 -3.6875 12.75 C-6.6875 10.1875 -6.6875 10.1875 -7.75 6.5625 C-7.6875 3.1875 -7.6875 3.1875 -6.4765625 1.48828125 C-4.16913538 -0.18938956 -2.82131126 -0.12266571 0 0 Z " fill="#DEAE1C" transform="translate(426.6875,85.8125)"/>
<path d="M0 0 C0.79148437 -0.01417969 1.58296875 -0.02835937 2.3984375 -0.04296875 C4.625 0.1875 4.625 0.1875 7.625 2.1875 C7.8125 5.3125 7.8125 5.3125 7.625 8.1875 C7.068125 8.17589844 6.51125 8.16429688 5.9375 8.15234375 C-3.21909612 7.64752429 -3.21909612 7.64752429 -11.375 10.75 C-11.705 11.224375 -12.035 11.69875 -12.375 12.1875 C-11.09499898 7.18385967 -9.20171924 4.62173522 -5.375 1.1875 C-3.79539731 -0.39210269 -2.17963184 0.01763456 0 0 Z " fill="#F4BC28" transform="translate(125.375,77.8125)"/>
<path d="M0 0 C1.90845703 0.16628906 1.90845703 0.16628906 3.85546875 0.3359375 C4.83128906 0.43132812 5.80710937 0.52671875 6.8125 0.625 C7.19383299 2.6164056 7.52575582 4.61779077 7.8125 6.625 C6.8125 7.625 6.8125 7.625 2.99609375 7.72265625 C1.41403318 7.71598089 -0.16801159 7.70401875 -1.75 7.6875 C-2.55630859 7.68298828 -3.36261719 7.67847656 -4.19335938 7.67382812 C-6.19143756 7.66200518 -8.18947783 7.64406914 -10.1875 7.625 C-10.375 4.75 -10.375 4.75 -10.1875 1.625 C-6.35207543 -0.93194972 -4.52847467 -0.41545639 0 0 Z " fill="#F4A72D" transform="translate(22.1875,78.375)"/>
<path d="M0 0 C1.7492214 -0.08142927 3.49954542 -0.13938541 5.25 -0.1875 C6.22453125 -0.22230469 7.1990625 -0.25710937 8.203125 -0.29296875 C11.37468742 0.03924798 12.67040307 0.88672279 15 3 C14.75 6.375 14.75 6.375 14 10 C11.00540673 12.55094982 7.79463585 12.17248345 4 12 C4 8.37 4 4.74 4 1 C2.68 0.67 1.36 0.34 0 0 Z " fill="#D1A622" transform="translate(379,86)"/>
<path d="M0 0 C2.70415801 2.19712839 2.94492745 3.55941961 3.375 7 C2.94492745 10.44058039 2.70415801 11.80287161 0 14 C-3.55761554 14.65964122 -6.73916234 14.63041883 -10 13 C-11.63102777 9.73794446 -11.51981506 6.56444611 -11 3 C-8.91207957 -1.17584087 -4.1132282 -0.76266106 0 0 Z M-6 2 C-7.38550197 4.77100394 -7.1877467 6.9334706 -7 10 C-6.01 11.485 -6.01 11.485 -5 13 C-4.01 12.67 -3.02 12.34 -2 12 C-0.63047327 9.26094655 -0.87378639 7.02912668 -1 4 C-1.33 3.34 -1.66 2.68 -2 2 C-3.32 2 -4.64 2 -6 2 Z " fill="#145886" transform="translate(395,127)"/>
<path d="M0 0 C2.75 -0.125 2.75 -0.125 6 1 C7.88042105 4.15622294 9.13872932 7.43018154 10 11 C9.67 11.66 9.34 12.32 9 13 C8.38125 12.835 7.7625 12.67 7.125 12.5 C5.03936614 11.92365356 5.03936614 11.92365356 3 12 C3.66 15.3 4.32 18.6 5 22 C0.05 21.67 -4.9 21.34 -10 21 C-10 20.67 -10 20.34 -10 20 C-5.71 20 -1.42 20 3 20 C2.2575 16.9990625 2.2575 16.9990625 1.5 13.9375 C0.38122411 9.12623842 -0.34307886 4.91746364 0 0 Z " fill="#22577F" transform="translate(22,51)"/>
<path d="M0 0 C0.66 1.98 1.32 3.96 2 6 C-6.03007236 7.50563857 -13.91432876 6.63782601 -22 6 C-22 4.35 -22 2.7 -22 1 C-20.08574219 1.01740234 -20.08574219 1.01740234 -18.1328125 1.03515625 C-16.46354313 1.04453417 -14.79427217 1.05363437 -13.125 1.0625 C-12.28324219 1.07087891 -11.44148438 1.07925781 -10.57421875 1.08789062 C-9.76855469 1.09111328 -8.96289062 1.09433594 -8.1328125 1.09765625 C-7.38918457 1.10289307 -6.64555664 1.10812988 -5.87939453 1.11352539 C-3.6373629 0.9780948 -2.26719544 0 0 0 Z " fill="#F4BC29" transform="translate(34,92)"/>
<path d="M0 0 C2.31 0 4.62 0 7 0 C6.67 7.59 6.34 15.18 6 23 C6.99 23.33 7.98 23.66 9 24 C6.03 24 3.06 24 0 24 C0.66 23.67 1.32 23.34 2 23 C2 15.74 2 8.48 2 1 C1.34 0.67 0.68 0.34 0 0 Z " fill="#E0AF1B" transform="translate(455,86)"/>
<path d="M0 0 C2.31 0 4.62 0 7 0 C6.67 7.59 6.34 15.18 6 23 C6.99 23.33 7.98 23.66 9 24 C6.03 24 3.06 24 0 24 C0.66 23.67 1.32 23.34 2 23 C2 15.74 2 8.48 2 1 C1.34 0.67 0.68 0.34 0 0 Z " fill="#E0AF1B" transform="translate(267,86)"/>
<path d="M0 0 C2.31 0 4.62 0 7 0 C6.01 0.66 5.02 1.32 4 2 C3.56715444 4.38704372 3.56715444 4.38704372 3.671875 7.15625 C3.67703125 8.17847656 3.6821875 9.20070313 3.6875 10.25390625 C3.708125 11.32511719 3.72875 12.39632812 3.75 13.5 C3.75773437 15.10681641 3.75773437 15.10681641 3.765625 16.74609375 C3.58945822 22.04158466 3.58945822 22.04158466 5 27 C3.02 27 1.04 27 -1 27 C-1 21.06 -1 15.12 -1 9 C-1.66 9.66 -2.32 10.32 -3 11 C-2.69078116 9.54096742 -2.37751201 8.08279278 -2.0625 6.625 C-1.88847656 5.81289063 -1.71445313 5.00078125 -1.53515625 4.1640625 C-1 2 -1 2 0 0 Z " fill="#EAEEF1" transform="translate(102,54)"/>
<path d="M0 0 C2.60018816 3.90028225 2.15085514 7.47434569 2 12 C-2.455 12.495 -2.455 12.495 -7 13 C-8.1875 10.875 -8.1875 10.875 -9 8 C-8 4.8125 -8 4.8125 -6 2 C-2.8125 0.625 -2.8125 0.625 0 0 Z " fill="#F1A52E" transform="translate(67,108)"/>
<path d="M0 0 C2.8125 -0.3125 2.8125 -0.3125 6 0 C7.875 2.5 7.875 2.5 9 5 C9 3.35 9 1.7 9 0 C10.65 0 12.3 0 14 0 C13.67 0.66 13.34 1.32 13 2 C12.77141886 4.0374763 12.58975722 6.08040303 12.4375 8.125 C12.35371094 9.22070312 12.26992188 10.31640625 12.18359375 11.4453125 C12.12300781 12.28835937 12.06242187 13.13140625 12 14 C8.65001479 12.88333826 8.20659778 12.25305075 6.3125 9.4375 C5.87550781 8.79683594 5.43851562 8.15617188 4.98828125 7.49609375 C4.66214844 7.00238281 4.33601563 6.50867188 4 6 C3.79029441 10.14093698 3.79029441 10.14093698 5 14 C3.35 14 1.7 14 0 14 C0.33 13.34 0.66 12.68 1 12 C1.0955931 10.33555539 1.12984645 8.66718037 1.125 7 C1.12757813 6.113125 1.13015625 5.22625 1.1328125 4.3125 C1.15127902 1.97323034 1.15127902 1.97323034 0 0 Z " fill="#125887" transform="translate(366,127)"/>
<path d="M0 0 C2.33542357 2.33542357 2.39362193 3.04676431 2.5625 6.25 C2.52850794 9.25586936 2.34875256 10.57123438 0.43359375 12.92578125 C-1.31846937 14.40884074 -3.07667889 15.74885999 -5 17 C-6.04313944 13.26276814 -6.07058606 9.88223339 -6 6 C-6 5.01 -6 4.02 -6 3 C-3.86437246 0.86437246 -2.93453261 0.36681658 0 0 Z " fill="#EFB42B" transform="translate(88,95)"/>
<path d="M0 0 C3.45831586 -0.02894547 6.91660072 -0.04678 10.375 -0.0625 C11.35984375 -0.07087891 12.3446875 -0.07925781 13.359375 -0.08789062 C14.77089844 -0.09272461 14.77089844 -0.09272461 16.2109375 -0.09765625 C17.51490479 -0.10551147 17.51490479 -0.10551147 18.84521484 -0.11352539 C21 0 21 0 23 1 C23 2.32 23 3.64 23 5 C15.08 5 7.16 5 -1 5 C-0.67 3.35 -0.34 1.7 0 0 Z " fill="#F6A12D" transform="translate(110,95)"/>
<path d="M0 0 C2.64 0 5.28 0 8 0 C7.67 0.66 7.34 1.32 7 2 C6.93003986 3.70702735 6.91559846 5.41668003 6.9375 7.125 C6.95103516 8.49011719 6.95103516 8.49011719 6.96484375 9.8828125 C6.97644531 10.58148438 6.98804688 11.28015625 7 12 C7.99 12.33 8.98 12.66 10 13 C10.02696365 11.20841511 10.04637917 9.41671527 10.0625 7.625 C10.07410156 6.62726563 10.08570313 5.62953125 10.09765625 4.6015625 C10.18006602 2.01567547 10.18006602 2.01567547 9 0 C10.65 0 12.3 0 14 0 C13.69249629 2.14655501 13.3788634 4.29223285 13.0625 6.4375 C12.88847656 7.63246094 12.71445312 8.82742187 12.53515625 10.05859375 C12 13 12 13 11 14 C7.5625 14.1875 7.5625 14.1875 4 14 C2 12 2 12 1.8046875 9.3984375 C1.82789063 8.40070313 1.85109375 7.40296875 1.875 6.375 C1.89304687 5.37210938 1.91109375 4.36921875 1.9296875 3.3359375 C1.95289063 2.56507813 1.97609375 1.79421875 2 1 C1.34 0.67 0.68 0.34 0 0 Z " fill="#145987" transform="translate(313,127)"/>
<path d="M0 0 C0 1.65 0 3.3 0 5 C-2 5 -2 5 -3.625 3.5 C-4.07875 3.005 -4.5325 2.51 -5 2 C-5.99 2.495 -5.99 2.495 -7 3 C-7.99444068 6.34493684 -8.10348268 8.68955197 -7 12 C-3.535 11.505 -3.535 11.505 0 11 C-0.99 12.485 -0.99 12.485 -2 14 C-5.00771135 14.33419015 -7.10056383 14.52770924 -10 14 C-12.6923481 11.81246717 -12.93936827 10.41576045 -13.4375 7 C-13 4 -13 4 -11.5625 1.625 C-7.79880462 -0.76173366 -4.34043107 -0.33387931 0 0 Z " fill="#185884" transform="translate(344,127)"/>
<path d="M0 0 C0.66 0 1.32 0 2 0 C0.71817216 5.52171991 -0.92428816 10.72350562 -3 16 C-3.89668981 18.33300433 -4.79247337 20.66635711 -5.6875 23 C-6.4580035 25.00012709 -7.22872431 27.00017055 -8 29 C-9.98 28.67 -11.96 28.34 -14 28 C-13.01 27.67 -12.02 27.34 -11 27 C-10.12084157 25.22509604 -10.12084157 25.22509604 -9.57421875 23.03515625 C-8.03582024 17.97038307 -6.00290024 13.25004303 -3.8125 8.4375 C-3.44447266 7.61958984 -3.07644531 6.80167969 -2.69726562 5.95898438 C-1.80204987 3.97090782 -0.9015835 1.98519692 0 0 Z " fill="#365163" transform="translate(120,64)"/>
<path d="M0 0 C0.66 0 1.32 0 2 0 C2.66 0.99 3.32 1.98 4 3 C4.99 3.33 5.98 3.66 7 4 C6.34 6.64 5.68 9.28 5 12 C2.36 12 -0.28 12 -3 12 C-3.309375 11.05125 -3.61875 10.1025 -3.9375 9.125 C-4.87394742 6.13919592 -4.87394742 6.13919592 -6 4 C-4.35 4 -2.7 4 -1 4 C-0.67 2.68 -0.34 1.36 0 0 Z " fill="#D5A728" transform="translate(72,26)"/>
<path d="M0 0 C0.67804688 0.0721875 1.35609375 0.144375 2.0546875 0.21875 C8.39612473 0.85113709 14.62886647 1.12438222 21 1 C21 2.32 21 3.64 21 5 C13.74 5 6.48 5 -1 5 C-1.33 4.01 -1.66 3.02 -2 2 C-1.34 2 -0.68 2 0 2 C0 1.34 0 0.68 0 0 Z " fill="#F6C327" transform="translate(112,91)"/>
<path d="M0 0 C0.66 0.33 1.32 0.66 2 1 C2 3.64 2 6.28 2 9 C-1.71792906 9.76048549 -4.36961831 10.12667018 -8 9 C-8.99 9 -9.98 9 -11 9 C-13 7 -13 7 -13.125 4.375 C-13.08375 3.59125 -13.0425 2.8075 -13 2 C-12.071875 2.165 -11.14375 2.33 -10.1875 2.5 C-5.73091903 3.31758136 -5.73091903 3.31758136 -1.8125 1.5 C-1.214375 1.005 -0.61625 0.51 0 0 Z " fill="#255074" transform="translate(53,34)"/>
<path d="M0 0 C9 0 9 0 11 1 C11 2.98 11 4.96 11 7 C10.01 7.33 9.02 7.66 8 8 C7.34 7.67 6.68 7.34 6 7 C5.67 7.66 5.34 8.32 5 9 C4.34 9 3.68 9 3 9 C2.34 8.34 1.68 7.68 1 7 C0.01 7.33 -0.98 7.66 -2 8 C-3 5 -3 5 -2 2 C-1.34 2 -0.68 2 0 2 C0 1.34 0 0.68 0 0 Z " fill="#1B5C8D" transform="translate(90,51)"/>
<path d="M0 0 C2.64 0 5.28 0 8 0 C7.01 0.495 7.01 0.495 6 1 C6 4.96 6 8.92 6 13 C10 11.5 10 11.5 11 9 C11.66 9.33 12.32 9.66 13 10 C12.67 11.32 12.34 12.64 12 14 C8.04 14 4.08 14 0 14 C0.66 13.67 1.32 13.34 2 13 C1.85915204 11.20793453 1.71216299 9.41635083 1.5625 7.625 C1.48128906 6.62726563 1.40007812 5.62953125 1.31640625 4.6015625 C1.15034374 2.02072387 1.15034374 2.02072387 0 0 Z " fill="#115888" transform="translate(297,127)"/>
<path d="M0 0 C2 1 2 1 2 1 Z M-1 1 C0.6396875 1.2475 0.6396875 1.2475 2.3125 1.5 C5.87525873 2.06718184 5.87525873 2.06718184 9 2 C10.32 2 11.64 2 13 2 C13 3.98 13 5.96 13 8 C8.05 8 3.1 8 -2 8 C-1.67 5.69 -1.34 3.38 -1 1 Z " fill="#245074" transform="translate(92,34)"/>
<path d="M0 0 C3 0 6 0 9 0 C10.17571451 3.67410785 10.07366746 7.16929183 10 11 C9.34 10.34 8.68 9.68 8 9 C7.01 9 6.02 9 5 9 C3.33333333 9 1.66666667 9 0 9 C0 6.03 0 3.06 0 0 Z " fill="#1B5D8E" transform="translate(48,56)"/>
<path d="M0 0 C1.98 0 3.96 0 6 0 C5.22095672 10.55808656 5.22095672 10.55808656 3 15 C2.01 15 1.02 15 0 15 C0 10.05 0 5.1 0 0 Z " fill="#2C4C68" transform="translate(79,81)"/>
<path d="M0 0 C0.99 0.33 1.98 0.66 3 1 C3 8.59 3 16.18 3 24 C2.01 24.33 1.02 24.66 0 25 C0 16.75 0 8.5 0 0 Z " fill="#2B4C68" transform="translate(80,55)"/>
<path d="M0 0 C2.5 0.25 2.5 0.25 4.5 2.25 C4.75 4.75 4.75 4.75 4.5 7.25 C2.5 9.25 2.5 9.25 0 9.5 C-2.5 9.25 -2.5 9.25 -4.5 7.25 C-4.75 4.75 -4.75 4.75 -4.5 2.25 C-2.5 0.25 -2.5 0.25 0 0 Z " fill="#0F5889" transform="translate(262.5,58.75)"/>
<path d="M0 0 C2.5 0.25 2.5 0.25 4.5 2.25 C4.75 4.75 4.75 4.75 4.5 7.25 C2.5 9.25 2.5 9.25 0 9.5 C-2.5 9.25 -2.5 9.25 -4.5 7.25 C-4.75 4.75 -4.75 4.75 -4.5 2.25 C-2.5 0.25 -2.5 0.25 0 0 Z " fill="#0F5889" transform="translate(200.5,58.75)"/>
<path d="M0 0 C8.25 0 16.5 0 25 0 C25.33 0.99 25.66 1.98 26 3 C17.27369392 3.09744014 8.66996704 3.16711095 0 2 C0 1.34 0 0.68 0 0 Z " fill="#F69930" transform="translate(12,98)"/>
<path d="M0 0 C2.40346379 2.40346379 2.32083747 3.13900195 2.375 6.4375 C2.29319974 10.67748029 2.29319974 10.67748029 0.125 13.0625 C-2 14 -2 14 -4 14 C-4.63019694 4.82713348 -4.63019694 4.82713348 -2 1.375 C-1.34 0.92125 -0.68 0.4675 0 0 Z " fill="#F6D823" transform="translate(78,103)"/>
<path d="M0 0 C2 2 2 2 2.8125 4.3125 C4.77103553 8.74497515 8.02778193 11.35185462 12 14 C8.875 14.4375 8.875 14.4375 5 14 C1.60587733 11.20660701 -0.6135977 8.15920691 -2 4 C-2.99 3.34 -3.98 2.68 -5 2 C-3.35 2 -1.7 2 0 2 C0 1.34 0 0.68 0 0 Z " fill="#D4A820" transform="translate(389,96)"/>
<path d="M0 0 C4 1 4 1 6 3 C6.33333333 8.33333333 6.33333333 8.33333333 5 11 C3.35 11 1.7 11 0 11 C0 7.37 0 3.74 0 0 Z " fill="#334D61" transform="translate(384,87)"/>
<path d="M0 0 C2.0859375 0.37109375 2.0859375 0.37109375 5.0859375 2.37109375 C4.7559375 3.36109375 4.4259375 4.35109375 4.0859375 5.37109375 C-1.24739583 5.37109375 -6.58072917 5.37109375 -11.9140625 5.37109375 C-8.21003981 0.59170963 -5.75032434 -0.16681828 0 0 Z " fill="#F6A92C" transform="translate(127.9140625,77.62890625)"/>
<path d="M0 0 C1.06347656 -0.00257812 2.12695312 -0.00515625 3.22265625 -0.0078125 C5.9375 0.125 5.9375 0.125 7.9375 1.125 C7.6075 2.115 7.2775 3.105 6.9375 4.125 C1.3275 4.125 -4.2825 4.125 -10.0625 4.125 C-9.7325 3.135 -9.4025 2.145 -9.0625 1.125 C-5.82377868 0.04542623 -3.40221795 -0.00826784 0 0 Z " fill="#F6BB29" transform="translate(22.0625,81.875)"/>
<path d="M0 0 C2.10407096 1.69636171 2.93240678 2.54981464 3.34057617 5.26831055 C3.32486572 6.13238525 3.30915527 6.99645996 3.29296875 7.88671875 C3.28330078 8.82451172 3.27363281 9.76230469 3.26367188 10.72851562 C3.23853516 11.70498047 3.21339844 12.68144531 3.1875 13.6875 C3.17396484 14.67556641 3.16042969 15.66363281 3.14648438 16.68164062 C3.11112203 19.12164231 3.06177033 21.56054719 3 24 C1.02 24 -0.96 24 -3 24 C-2.34 23.34 -1.68 22.68 -1 22 C-0.62948007 19.6754661 -0.62948007 19.6754661 -0.5859375 16.9921875 C-0.54726562 16.00605469 -0.50859375 15.01992187 -0.46875 14.00390625 C-0.4378125 12.97136719 -0.406875 11.93882813 -0.375 10.875 C-0.33632812 9.83472656 -0.29765625 8.79445313 -0.2578125 7.72265625 C-0.16335234 5.14861689 -0.07778786 2.57458845 0 0 Z " fill="#C5D0D9" transform="translate(83,57)"/>
<path d="M0 0 C7.92 0 15.84 0 24 0 C24 0.66 24 1.32 24 2 C15.96992764 3.50563857 8.08567124 2.63782601 0 2 C0 1.34 0 0.68 0 0 Z " fill="#F5A92C" transform="translate(12,96)"/>
<path d="M0 0 C5.26415094 7.01886792 5.26415094 7.01886792 4.625 11.8125 C4.41875 12.534375 4.2125 13.25625 4 14 C3.01 14 2.02 14 1 14 C0.67 14.99 0.34 15.98 0 17 C0 11.39 0 5.78 0 0 Z " fill="#265C84" transform="translate(85,62)"/>
<path d="M0 0 C0.33 0.66 0.66 1.32 1 2 C0.34 2.66 -0.32 3.32 -1 4 C-2.0725 3.979375 -3.145 3.95875 -4.25 3.9375 C-8.34846099 4.00580768 -10.50479443 4.95402601 -14 7 C-14 6.34 -14 5.68 -14 5 C-13.360625 4.525625 -12.72125 4.05125 -12.0625 3.5625 C-9.71627037 2.0908635 -9.71627037 2.0908635 -9 -1 C-5.54681512 -2.60326441 -3.27290476 -1.68068082 0 0 Z " fill="#E68A34" transform="translate(110,93)"/>
<path d="M0 0 C4.29 0 8.58 0 13 0 C13 1.32 13 2.64 13 4 C11.20841511 4.02696365 9.41671527 4.04637917 7.625 4.0625 C6.62726562 4.07410156 5.62953125 4.08570312 4.6015625 4.09765625 C2 4 2 4 0 3 C0 2.01 0 1.02 0 0 Z " fill="#F18A34" transform="translate(13,72)"/>
<path d="M0 0 C1.65 0 3.3 0 5 0 C4.4225 0.78375 3.845 1.5675 3.25 2.375 C0.83943048 5.9608294 -0.63765369 9.80418898 -2.16796875 13.828125 C-3 16 -3 16 -4 18 C-4.99 17.67 -5.98 17.34 -7 17 C-6.74605469 16.443125 -6.49210937 15.88625 -6.23046875 15.3125 C-3.95506419 10.26740825 -1.89134973 5.20121175 0 0 Z " fill="#CCA424" transform="translate(315,86)"/>
<path d="M0 0 C6.27 0 12.54 0 19 0 C19 1.98 19 3.96 19 6 C18.34 5.01 17.68 4.02 17 3 C15.01100539 2.41665346 15.01100539 2.41665346 12.75 2.3125 C11.55310547 2.21582031 11.55310547 2.21582031 10.33203125 2.1171875 C7.54994484 1.97738416 4.78480935 1.92859463 2 2 C1.34 3.32 0.68 4.64 0 6 C0 4.02 0 2.04 0 0 Z " fill="#C8D2DB" transform="translate(36,54)"/>
<path d="M0 0 C2.64 0 5.28 0 8 0 C8 2.97 8 5.94 8 9 C6 9 6 9 4.4921875 7.5390625 C3.95851563 6.90742187 3.42484375 6.27578125 2.875 5.625 C2.06675781 4.68527344 2.06675781 4.68527344 1.2421875 3.7265625 C0 2 0 2 0 0 Z " fill="#A2803B" transform="translate(14,100)"/>
<path d="M0 0 C1.32 0 2.64 0 4 0 C4 2.97 4 5.94 4 9 C0 8 0 8 -2 6 C-1.44444444 1.44444444 -1.44444444 1.44444444 0 0 Z " fill="#2E4F6C" transform="translate(65,55)"/>
<path d="M0 0 C2.64 0 5.28 0 8 0 C6.55922954 3.36179774 4.75249979 5.59156268 2 8 C1.34 8 0.68 8 0 8 C0 5.36 0 2.72 0 0 Z " fill="#8C7A45" transform="translate(124,101)"/>
<path d="M0 0 C2.42522207 2.42522207 2.29629254 3.1720679 2.3125 6.5 C2.33763672 7.69109375 2.33763672 7.69109375 2.36328125 8.90625 C2.24339844 9.5971875 2.12351562 10.288125 2 11 C1.01 11.66 0.02 12.32 -1 13 C-1.66 12.34 -2.32 11.68 -3 11 C-3 7.56169885 -2.62599243 4.38035912 -2 1 C-1.34 0.67 -0.68 0.34 0 0 Z " fill="#F2A62D" transform="translate(88,95)"/>
<path d="M0 0 C0.33 0 0.66 0 1 0 C1 2.31 1 4.62 1 7 C-0.093125 6.835 -1.18625 6.67 -2.3125 6.5 C-5.87525873 5.93281816 -5.87525873 5.93281816 -9 6 C-8.67 4.68 -8.34 3.36 -8 2 C-5.36 2 -2.72 2 0 2 C0 1.34 0 0.68 0 0 Z " fill="#21537A" transform="translate(124,44)"/>
<path d="M0 0 C2.96052484 3.36423277 3.92289822 6.69159287 5 11 C2.03 10.505 2.03 10.505 -1 10 C-1.02689216 8.52093108 -1.04634621 7.04172517 -1.0625 5.5625 C-1.07410156 4.73878906 -1.08570312 3.91507813 -1.09765625 3.06640625 C-1 1 -1 1 0 0 Z " fill="#275072" transform="translate(22,41)"/>
<path d="M0 0 C-0.33 0.99 -0.66 1.98 -1 3 C-6.61 2.67 -12.22 2.34 -18 2 C-17.67 1.34 -17.34 0.68 -17 0 C-11.1142177 -1.15613581 -5.9057942 -0.88860329 0 0 Z " fill="#F7CC27" transform="translate(133,86)"/>
<path d="M0 0 C0.66 0 1.32 0 2 0 C0.79135368 5.29944923 -0.52313928 10.145353 -3 15 C-3.99 15.33 -4.98 15.66 -6 16 C-4.25192871 10.53262809 -2.34205919 5.24175152 0 0 Z " fill="#2B4D6A" transform="translate(120,64)"/>
<path d="M0 0 C0.99773437 0.02320313 1.99546875 0.04640625 3.0234375 0.0703125 C4.52777344 0.09738281 4.52777344 0.09738281 6.0625 0.125 C6.83335938 0.14820313 7.60421875 0.17140625 8.3984375 0.1953125 C8.3984375 3.1653125 8.3984375 6.1353125 8.3984375 9.1953125 C6.65216272 6.57590033 6.01121362 5.15706373 5.3984375 2.1953125 C2.52430625 1.86133463 2.52430625 1.86133463 -0.6015625 2.1953125 C-2.51412962 4.07609123 -2.51412962 4.07609123 -3.6015625 6.1953125 C-4.2265625 4.3203125 -4.2265625 4.3203125 -4.6015625 2.1953125 C-2.6015625 0.1953125 -2.6015625 0.1953125 0 0 Z " fill="#D1DBE2" transform="translate(65.6015625,53.8046875)"/>
<path d="M0 0 C1.32 0 2.64 0 4 0 C4.33 1.65 4.66 3.3 5 5 C5.33 3.35 5.66 1.7 6 0 C6.33 0 6.66 0 7 0 C7 1.98 7 3.96 7 6 C7.66 6.33 8.32 6.66 9 7 C6.03 7 3.06 7 0 7 C0.66 5.02 1.32 3.04 2 1 C1.34 0.67 0.68 0.34 0 0 Z " fill="#8FA2B2" transform="translate(64,124)"/>
<path d="M0 0 C0.66 0 1.32 0 2 0 C2.33 1.98 2.66 3.96 3 6 C4.134375 6.12375 5.26875 6.2475 6.4375 6.375 C7.613125 6.58125 8.78875 6.7875 10 7 C10.33 7.66 10.66 8.32 11 9 C10.37351562 8.91621094 9.74703125 8.83242187 9.1015625 8.74609375 C8.28429687 8.64425781 7.46703125 8.54242188 6.625 8.4375 C5.40683594 8.28087891 5.40683594 8.28087891 4.1640625 8.12109375 C1.95100814 7.81762672 1.95100814 7.81762672 0 9 C0 6.03 0 3.06 0 0 Z " fill="#B6C4D0" transform="translate(60,73)"/>
<path d="M0 0 C1.65 0 3.3 0 5 0 C4.34 5.61 3.68 11.22 3 17 C2.67 17 2.34 17 2 17 C1.93941406 15.94039062 1.87882813 14.88078125 1.81640625 13.7890625 C1.73199873 12.40102779 1.64735083 11.01300768 1.5625 9.625 C1.52318359 8.92632812 1.48386719 8.22765625 1.44335938 7.5078125 C1.25719866 3.62639508 1.25719866 3.62639508 0 0 Z " fill="#E6B319" transform="translate(237,86)"/>
<path d="M0 0 C0.66 0.33 1.32 0.66 2 1 C1.67 2.98 1.34 4.96 1 7 C0.01 7 -0.98 7 -2 7 C-2.33 7.66 -2.66 8.32 -3 9 C-3.99 7.35 -4.98 5.7 -6 4 C-4.35 4 -2.7 4 -1 4 C-0.67 2.68 -0.34 1.36 0 0 Z " fill="#C29A2C" transform="translate(72,26)"/>
<path d="M0 0 C0.66 0 1.32 0 2 0 C2 2.31 2 4.62 2 7 C0.35 6.67 -1.3 6.34 -3 6 C-3 4.35 -3 2.7 -3 1 C-2.01 1.495 -2.01 1.495 -1 2 C-0.67 1.34 -0.34 0.68 0 0 Z " fill="#8C9FB0" transform="translate(76,124)"/>
<path d="M0 0 C1.65 0 3.3 0 5 0 C4.8864371 1.64666203 4.75882619 3.29236082 4.625 4.9375 C4.55539062 5.85402344 4.48578125 6.77054688 4.4140625 7.71484375 C4.27742188 8.46894531 4.14078125 9.22304687 4 10 C3.01 10.495 3.01 10.495 2 11 C1.93941406 10.37351563 1.87882812 9.74703125 1.81640625 9.1015625 C1.73261719 8.28429687 1.64882813 7.46703125 1.5625 6.625 C1.48128906 5.81289062 1.40007812 5.00078125 1.31640625 4.1640625 C1.10909886 1.95727195 1.10909886 1.95727195 0 0 Z " fill="#19547E" transform="translate(322,127)"/>
<path d="M0 0 C1.32 0.99 2.64 1.98 4 3 C3.67 5.31 3.34 7.62 3 10 C2.34 10 1.68 10 1 10 C0.67 6.7 0.34 3.4 0 0 Z " fill="#2B6B99" transform="translate(68,70)"/>
<path d="M0 0 C0.99 0 1.98 0 3 0 C3.33 0.99 3.66 1.98 4 3 C-1.28 3 -6.56 3 -12 3 C-12 2.67 -12 2.34 -12 2 C-11.21753906 1.93941406 -10.43507813 1.87882812 -9.62890625 1.81640625 C-8.61699219 1.73261719 -7.60507812 1.64882812 -6.5625 1.5625 C-5.55316406 1.48128906 -4.54382813 1.40007812 -3.50390625 1.31640625 C-1.06359221 1.26788532 -1.06359221 1.26788532 0 0 Z " fill="#EA9632" transform="translate(34,98)"/>
<path d="M0 0 C0.99 0 1.98 0 3 0 C3 3.11257569 2.82638376 5.10765685 2 8 C1.01 7.67 0.02 7.34 -1 7 C-0.34 7 0.32 7 1 7 C0.34 5.02 -0.32 3.04 -1 1 C-0.67 0.67 -0.34 0.34 0 0 Z " fill="#8FA1B1" transform="translate(82,123)"/>
<path d="M0 0 C1.65 0 3.3 0 5 0 C3.7260411 2.03833424 2.38938077 4.03852126 1 6 C0.34 6 -0.32 6 -1 6 C-0.67 4.02 -0.34 2.04 0 0 Z " fill="#D7AA1F" transform="translate(315,86)"/>
<path d="M0 0 C1.65 0 3.3 0 5 0 C3.515 3.465 3.515 3.465 2 7 C1.67 7 1.34 7 1 7 C0.67 4.69 0.34 2.38 0 0 Z " fill="#1A557E" transform="translate(375,127)"/>
</svg>
